<svg xmlns="http://www.w3.org/2000/svg" xmlns:xlink="http://www.w3.org/1999/xlink" width="140" zoomAndPan="magnify" viewBox="0 0 104.88 30.000001" height="40" preserveAspectRatio="xMidYMid meet" version="1.0"><defs><g/><clipPath id="1751158ddd"><path d="M 1.632812 0 L 103.128906 0 L 103.128906 29.03125 L 1.632812 29.03125 Z M 1.632812 0 " clip-rule="nonzero"/></clipPath><clipPath id="4eda0d3f63"><path d="M 1.632812 0 L 60 0 L 60 29.03125 L 1.632812 29.03125 Z M 1.632812 0 " clip-rule="nonzero"/></clipPath><clipPath id="a46ba2a03c"><path d="M 0.632812 0 L 58.25 0 L 58.25 29.03125 L 0.632812 29.03125 Z M 0.632812 0 " clip-rule="nonzero"/></clipPath><clipPath id="e41eef0efa"><path d="M 11.871094 7.621094 L 21.253906 7.621094 L 21.253906 17 L 11.871094 17 Z M 11.871094 7.621094 " clip-rule="nonzero"/></clipPath><clipPath id="56bbd966ee"><path d="M 14 14 L 24 14 L 24 25 L 14 25 Z M 14 14 " clip-rule="nonzero"/></clipPath><clipPath id="5639c3bc97"><path d="M 25.753906 16.046875 L 23.507812 25.15625 L 14.394531 22.910156 L 16.640625 13.796875 Z M 25.753906 16.046875 " clip-rule="nonzero"/></clipPath><clipPath id="81ac81a248"><path d="M 25.753906 16.046875 L 23.507812 25.15625 L 14.394531 22.910156 L 16.640625 13.796875 Z M 25.753906 16.046875 " clip-rule="nonzero"/></clipPath><clipPath id="289525ee6a"><path d="M 20 22 L 31 22 L 31 29.03125 L 20 29.03125 Z M 20 22 " clip-rule="nonzero"/></clipPath><clipPath id="0f7cc072e2"><path d="M 23.945312 19.828125 L 31.390625 25.542969 L 25.679688 32.988281 L 18.230469 27.273438 Z M 23.945312 19.828125 " clip-rule="nonzero"/></clipPath><clipPath id="bf542532ea"><path d="M 23.945312 19.828125 L 31.390625 25.542969 L 25.679688 32.988281 L 18.230469 27.273438 Z M 23.945312 19.828125 " clip-rule="nonzero"/></clipPath><clipPath id="e2b685feef"><path d="M 33 17 L 44 17 L 44 27 L 33 27 Z M 33 17 " clip-rule="nonzero"/></clipPath><clipPath id="d1b3f1165d"><path d="M 44.925781 22.652344 L 36.371094 26.515625 L 32.511719 17.960938 L 41.0625 14.097656 Z M 44.925781 22.652344 " clip-rule="nonzero"/></clipPath><clipPath id="9ca9a81833"><path d="M 44.925781 22.652344 L 36.371094 26.515625 L 32.511719 17.960938 L 41.0625 14.097656 Z M 44.925781 22.652344 " clip-rule="nonzero"/></clipPath><clipPath id="dfd792eaa8"><path d="M 18 7 L 28 7 L 28 17 L 18 17 Z M 18 7 " clip-rule="nonzero"/></clipPath><clipPath id="7606b7158f"><path d="M 28.125 16.296875 L 18.757812 16.882812 L 18.171875 7.515625 L 27.539062 6.929688 Z M 28.125 16.296875 " clip-rule="nonzero"/></clipPath><clipPath id="237f3432d9"><path d="M 28.125 16.296875 L 18.757812 16.882812 L 18.171875 7.515625 L 27.539062 6.929688 Z M 28.125 16.296875 " clip-rule="nonzero"/></clipPath><clipPath id="c6a5a97a14"><path d="M 25 10.042969 L 34.324219 10.042969 L 34.324219 19.429688 L 25 19.429688 Z M 25 10.042969 " clip-rule="nonzero"/></clipPath><clipPath id="792f8e7883"><path d="M 23 3 L 33 3 L 33 14 L 23 14 Z M 23 3 " clip-rule="nonzero"/></clipPath><clipPath id="bf355afd9e"><path d="M 21.441406 11.949219 L 23.742188 2.847656 L 32.839844 5.148438 L 30.539062 14.25 Z M 21.441406 11.949219 " clip-rule="nonzero"/></clipPath><clipPath id="252b2b1910"><path d="M 21.441406 11.949219 L 23.742188 2.847656 L 32.839844 5.148438 L 30.539062 14.25 Z M 21.441406 11.949219 " clip-rule="nonzero"/></clipPath><clipPath id="7ddb0cb993"><path d="M 25 0 L 34 0 L 34 8 L 25 8 Z M 25 0 " clip-rule="nonzero"/></clipPath><clipPath id="6dc3e82eb0"><path d="M 34 0 L 45 0 L 45 10 L 34 10 Z M 34 0 " clip-rule="nonzero"/></clipPath><clipPath id="5b21ef823c"><path d="M 31.867188 4.941406 L 39.578125 -0.402344 L 44.925781 7.308594 L 37.210938 12.65625 Z M 31.867188 4.941406 " clip-rule="nonzero"/></clipPath><clipPath id="a93028c834"><path d="M 31.867188 4.941406 L 39.578125 -0.402344 L 44.925781 7.308594 L 37.210938 12.65625 Z M 31.867188 4.941406 " clip-rule="nonzero"/></clipPath><clipPath id="d21c77b805"><path d="M 22 0 L 29 0 L 29 8 L 22 8 Z M 22 0 " clip-rule="nonzero"/></clipPath><clipPath id="0af143a21f"><path d="M 10 1 L 21 1 L 21 10 L 10 10 Z M 10 1 " clip-rule="nonzero"/></clipPath><clipPath id="0e20d36fd5"><path d="M 22.277344 6.367188 L 13.722656 10.226562 L 9.863281 1.671875 L 18.417969 -2.1875 Z M 22.277344 6.367188 " clip-rule="nonzero"/></clipPath><clipPath id="5ec5622698"><path d="M 22.277344 6.367188 L 13.722656 10.226562 L 9.863281 1.671875 L 18.417969 -2.1875 Z M 22.277344 6.367188 " clip-rule="nonzero"/></clipPath><clipPath id="a15d683113"><path d="M 7 0 L 14 0 L 14 10 L 7 10 Z M 7 0 " clip-rule="nonzero"/></clipPath><clipPath id="27bfe0149e"><path d="M 29 0 L 38 0 L 38 7 L 29 7 Z M 29 0 " clip-rule="nonzero"/></clipPath><clipPath id="57555224c9"><path d="M 34 0 L 39 0 L 39 9 L 34 9 Z M 34 0 " clip-rule="nonzero"/></clipPath><clipPath id="4af14816d3"><rect x="0" width="59" y="0" height="30"/></clipPath><clipPath id="e309117e1c"><path d="M 44 2 L 100 2 L 100 29.03125 L 44 29.03125 Z M 44 2 " clip-rule="nonzero"/></clipPath><clipPath id="efc4c7140c"><path d="M 0.367188 1 L 32 1 L 32 27.03125 L 0.367188 27.03125 Z M 0.367188 1 " clip-rule="nonzero"/></clipPath><clipPath id="4e20526e29"><path d="M 0.367188 8 L 13 8 L 13 18 L 0.367188 18 Z M 0.367188 8 " clip-rule="nonzero"/></clipPath><clipPath id="4c99a9b08d"><path d="M 0.367188 8 L 13 8 L 13 18 L 0.367188 18 Z M 0.367188 8 " clip-rule="nonzero"/></clipPath><clipPath id="2d8c252158"><rect x="0" width="32" y="0" height="27"/></clipPath><clipPath id="fd391b9279"><path d="M 31 0.0898438 L 55.878906 0.0898438 L 55.878906 27.03125 L 31 27.03125 Z M 31 0.0898438 " clip-rule="nonzero"/></clipPath><clipPath id="5336787756"><path d="M 17 8 L 24.878906 8 L 24.878906 21 L 17 21 Z M 17 8 " clip-rule="nonzero"/></clipPath><clipPath id="a780a4d2b4"><path d="M 0.492188 9 L 9 9 L 9 20 L 0.492188 20 Z M 0.492188 9 " clip-rule="nonzero"/></clipPath><clipPath id="c60398bf9d"><path d="M 16 8 L 24.878906 8 L 24.878906 21 L 16 21 Z M 16 8 " clip-rule="nonzero"/></clipPath><clipPath id="26159d949a"><path d="M 17 8 L 24.878906 8 L 24.878906 21 L 17 21 Z M 17 8 " clip-rule="nonzero"/></clipPath><clipPath id="9b13b4d576"><rect x="0" width="25" y="0" height="28"/></clipPath><clipPath id="d4f86e66a4"><rect x="0" width="56" y="0" height="28"/></clipPath></defs><g clip-path="url(#1751158ddd)"><path fill="#ffffff" d="M 1.632812 0 L 103.246094 0 L 103.246094 29.03125 L 1.632812 29.03125 Z M 1.632812 0 " fill-opacity="1" fill-rule="nonzero"/><path fill="#f7f8fd" d="M 1.632812 0 L 103.246094 0 L 103.246094 29.03125 L 1.632812 29.03125 Z M 1.632812 0 " fill-opacity="1" fill-rule="nonzero"/></g><g clip-path="url(#4eda0d3f63)"><g transform="matrix(1, 0, 0, 1, 1, 0.000000000000005692)"><g clip-path="url(#4af14816d3)"><g clip-path="url(#a46ba2a03c)"><path fill="#fbfbfb" d="M 57.464844 -4.789062 C 57.398438 -4.792969 57.335938 -4.789062 57.269531 -4.777344 L 56.835938 -5.347656 L 52.816406 -13.289062 L 54.339844 -14.765625 C 54.554688 -14.609375 54.832031 -14.550781 55.105469 -14.628906 C 55.132812 -14.636719 55.15625 -14.644531 55.179688 -14.652344 Z M 57.140625 1.914062 C 57.039062 1.777344 56.894531 1.667969 56.738281 1.609375 L 57.320312 -3.011719 C 57.425781 -3 57.539062 -3.007812 57.648438 -3.039062 C 57.660156 -3.042969 57.671875 -3.046875 57.679688 -3.050781 Z M 56.386719 8.832031 C 56.214844 8.765625 56.03125 8.726562 55.839844 8.726562 L 56.519531 3.328125 C 56.566406 3.324219 56.617188 3.316406 56.664062 3.300781 C 56.796875 3.265625 56.914062 3.199219 57.011719 3.113281 Z M 55.433594 8.785156 C 55.21875 8.847656 55.023438 8.953125 54.863281 9.09375 L 50.074219 2.472656 C 50.324219 2.3125 50.484375 2.035156 50.488281 1.738281 L 55.535156 2.351562 C 55.523438 2.460938 55.53125 2.574219 55.5625 2.6875 C 55.65625 3.011719 55.914062 3.242188 56.222656 3.3125 L 55.535156 8.761719 C 55.503906 8.765625 55.46875 8.773438 55.433594 8.785156 Z M 51.484375 17.046875 L 51.386719 16.183594 L 54.875 11.347656 C 54.929688 11.394531 54.992188 11.4375 55.054688 11.476562 L 52.0625 17.28125 C 51.898438 17.132812 51.695312 17.042969 51.484375 17.046875 Z M 46.09375 23.78125 C 46.058594 23.746094 46.023438 23.710938 45.988281 23.675781 L 50.1875 17.851562 L 50.707031 17.933594 C 50.707031 18.027344 50.722656 18.121094 50.75 18.214844 C 50.808594 18.429688 50.929688 18.609375 51.082031 18.734375 Z M 39.519531 28.019531 C 39.410156 27.828125 39.234375 27.691406 39.035156 27.621094 L 39.210938 27.101562 L 43.660156 25.429688 C 43.6875 25.484375 43.714844 25.539062 43.75 25.589844 Z M 29.964844 30.875 C 29.9375 30.785156 29.902344 30.699219 29.859375 30.617188 L 33.671875 29.183594 L 37.863281 28.609375 C 37.871094 28.644531 37.878906 28.675781 37.886719 28.710938 C 37.886719 28.714844 37.890625 28.714844 37.890625 28.71875 Z M 22.558594 30.925781 C 22.566406 30.855469 22.5625 30.785156 22.550781 30.710938 L 27.894531 29.976562 C 27.386719 30.222656 27.066406 30.738281 27.058594 31.292969 Z M 15.085938 28.84375 C 15.203125 28.546875 15.230469 28.210938 15.136719 27.878906 C 15.09375 27.730469 15.03125 27.589844 14.949219 27.46875 L 18.945312 24.773438 L 21.40625 30 C 21.125 30.089844 20.917969 30.304688 20.828125 30.5625 Z M 11.882812 20.730469 L 15.632812 19.792969 C 15.636719 19.820312 15.644531 19.847656 15.652344 19.878906 C 15.796875 20.382812 16.269531 20.691406 16.714844 20.566406 C 16.789062 20.546875 16.855469 20.511719 16.921875 20.46875 L 18.816406 24.503906 L 14.761719 27.234375 C 14.4375 26.910156 13.96875 26.746094 13.496094 26.8125 Z M 6.484375 21.367188 L 5.863281 20.808594 L 8.566406 9.394531 L 10.742188 17.585938 Z M 11.578125 20.742188 L 7.054688 21.875 L 6.53125 21.40625 L 10.757812 17.648438 Z M 13.207031 26.882812 C 13.078125 26.929688 12.957031 26.992188 12.847656 27.070312 L 7.105469 21.921875 L 11.59375 20.800781 Z M 6.308594 22.058594 C 6.300781 22.03125 6.296875 22.003906 6.289062 21.976562 C 6.261719 21.882812 6.222656 21.796875 6.175781 21.71875 L 6.304688 21.605469 L 6.703125 21.960938 Z M 5.742188 21.328125 L 5.785156 21.136719 L 6.261719 21.5625 L 6.144531 21.667969 C 6.039062 21.515625 5.898438 21.394531 5.742188 21.328125 Z M 5.226562 21.285156 C 5.144531 21.308594 5.070312 21.347656 5.003906 21.394531 L 3.898438 19.445312 L 5.738281 21.09375 L 5.6875 21.304688 C 5.539062 21.253906 5.382812 21.242188 5.226562 21.285156 Z M 3.4375 18.632812 L 2.535156 17.039062 C 2.589844 16.804688 2.585938 16.550781 2.515625 16.304688 C 2.4375 16.023438 2.28125 15.789062 2.082031 15.605469 L 7.480469 8.714844 C 7.757812 8.925781 8.105469 9.035156 8.464844 9.011719 L 8.535156 9.273438 L 5.816406 20.761719 Z M 2.277344 17.59375 C 2.382812 17.453125 2.464844 17.292969 2.511719 17.121094 L 3.300781 18.507812 Z M -3.386719 6.597656 C -3.054688 6.429688 -2.859375 6.070312 -2.90625 5.695312 L 3.941406 3.605469 L 7.179688 6.648438 C 6.917969 7.003906 6.816406 7.472656 6.945312 7.933594 C 7.007812 8.15625 7.117188 8.347656 7.261719 8.511719 L 1.84375 15.429688 C 1.75 15.375 1.648438 15.328125 1.546875 15.292969 Z M 0.675781 15.277344 C 0.632812 15.289062 0.59375 15.304688 0.550781 15.320312 L -3.546875 6.664062 C -3.511719 6.652344 -3.476562 6.640625 -3.441406 6.625 L 1.464844 15.269531 C 1.214844 15.203125 0.945312 15.203125 0.675781 15.277344 Z M -3.6875 -1.671875 C -3.453125 -1.617188 -3.203125 -1.621094 -2.957031 -1.691406 C -2.824219 -1.730469 -2.703125 -1.785156 -2.589844 -1.851562 L -3.664062 4.921875 C -3.726562 4.914062 -3.789062 4.910156 -3.851562 4.914062 Z M -1.261719 -12.496094 C -1.15625 -12.425781 -1.042969 -12.378906 -0.925781 -12.359375 L -1.679688 -7.597656 L -3.214844 -4.601562 C -3.242188 -4.605469 -3.269531 -4.609375 -3.296875 -4.609375 Z M 4.910156 -21.03125 C 4.96875 -20.957031 5.035156 -20.882812 5.109375 -20.820312 L 3.332031 -17.355469 L -0.21875 -13.847656 C -0.300781 -13.964844 -0.402344 -14.058594 -0.519531 -14.125 Z M 13.191406 -27.433594 C 13.21875 -27.355469 13.253906 -27.28125 13.300781 -27.214844 L 10.503906 -24.449219 L 7.203125 -22.925781 C 7.160156 -22.976562 7.109375 -23.023438 7.058594 -23.070312 Z M 20.78125 -29.476562 C 20.789062 -29.429688 20.800781 -29.382812 20.8125 -29.339844 C 20.824219 -29.300781 20.835938 -29.261719 20.851562 -29.226562 L 17.925781 -27.875 L 14.921875 -27.636719 C 14.929688 -27.746094 14.921875 -27.859375 14.890625 -27.96875 C 14.875 -28.03125 14.851562 -28.085938 14.824219 -28.140625 Z M 33.074219 -29.226562 C 33.066406 -29.175781 33.058594 -29.125 33.054688 -29.070312 L 27.945312 -28.667969 L 23.722656 -29.566406 C 23.726562 -29.621094 23.730469 -29.675781 23.730469 -29.726562 Z M 42.855469 -25.765625 C 42.816406 -25.683594 42.785156 -25.59375 42.765625 -25.503906 L 35.300781 -27.097656 L 34.53125 -28.367188 C 34.652344 -28.472656 34.742188 -28.609375 34.792969 -28.757812 Z M 54.332031 -16.203125 C 54.289062 -16.171875 54.253906 -16.136719 54.21875 -16.101562 L 50.640625 -18.636719 C 50.703125 -18.804688 50.714844 -18.996094 50.660156 -19.179688 C 50.527344 -19.65625 50.035156 -19.929688 49.558594 -19.796875 C 49.554688 -19.796875 49.546875 -19.792969 49.542969 -19.792969 L 45.625 -24.699219 C 45.632812 -24.722656 45.640625 -24.746094 45.648438 -24.769531 Z M 50.320312 -18.210938 C 50.453125 -18.304688 50.554688 -18.433594 50.621094 -18.578125 L 54.175781 -16.054688 C 53.996094 -15.835938 53.921875 -15.535156 54.003906 -15.242188 C 54.054688 -15.0625 54.160156 -14.914062 54.292969 -14.800781 L 52.785156 -13.347656 Z M 52.398438 -12.972656 C 52.054688 -13.367188 51.515625 -13.5625 50.976562 -13.453125 L 49.183594 -16.667969 L 49.601562 -18.070312 C 49.742188 -18.035156 49.894531 -18.035156 50.046875 -18.078125 C 50.128906 -18.101562 50.203125 -18.136719 50.269531 -18.179688 L 52.742188 -13.300781 Z M 52.472656 -11.113281 C 52.738281 -11.46875 52.839844 -11.941406 52.707031 -12.402344 C 52.652344 -12.597656 52.558594 -12.773438 52.4375 -12.925781 L 52.769531 -13.246094 L 56.636719 -5.613281 Z M 56.546875 -3.65625 C 56.5625 -3.609375 56.578125 -3.566406 56.597656 -3.527344 L 53.859375 -1.558594 L 49.675781 -8.058594 L 50.636719 -10.652344 C 50.949219 -10.503906 51.320312 -10.460938 51.683594 -10.5625 C 51.90625 -10.628906 52.105469 -10.742188 52.269531 -10.886719 L 56.972656 -4.675781 C 56.617188 -4.480469 56.433594 -4.0625 56.546875 -3.65625 Z M 54.019531 -1.308594 L 56.761719 -3.28125 C 56.839844 -3.199219 56.929688 -3.136719 57.027344 -3.089844 L 56.445312 1.550781 C 56.355469 1.546875 56.265625 1.558594 56.179688 1.585938 C 56.09375 1.609375 56.015625 1.644531 55.945312 1.6875 Z M 50.386719 1.304688 L 53.972656 -1.273438 L 55.898438 1.722656 C 55.710938 1.859375 55.582031 2.0625 55.542969 2.289062 L 50.488281 1.679688 C 50.484375 1.609375 50.476562 1.542969 50.457031 1.476562 C 50.4375 1.414062 50.417969 1.359375 50.386719 1.304688 Z M 48.554688 -5.042969 L 49.648438 -7.988281 L 53.808594 -1.523438 L 50.207031 1.066406 C 50.03125 0.902344 49.796875 0.8125 49.550781 0.828125 Z M 54.410156 10.621094 C 54.414062 10.636719 54.417969 10.648438 54.421875 10.664062 L 50.964844 12.441406 L 50.472656 8.089844 L 54.394531 9.878906 C 54.335938 10.113281 54.339844 10.371094 54.410156 10.621094 Z M 50.972656 12.507812 L 54.441406 10.71875 C 54.496094 10.871094 54.570312 11.007812 54.664062 11.125 L 51.335938 15.746094 Z M 45.144531 23.3125 L 45.019531 17 L 49.859375 17.796875 L 45.746094 23.503906 C 45.5625 23.398438 45.359375 23.332031 45.144531 23.3125 Z M 40.613281 22.992188 L 43.601562 24.296875 C 43.507812 24.5625 43.488281 24.855469 43.558594 25.148438 L 39.335938 26.738281 Z M 38.546875 27.035156 L 37.816406 21.769531 L 40.558594 22.96875 L 39.265625 26.765625 Z M 38.625 27.582031 L 38.589844 27.335938 L 39.140625 27.128906 L 38.976562 27.605469 C 38.863281 27.574219 38.746094 27.566406 38.625 27.582031 Z M 37.914062 27.589844 L 38.121094 27.828125 C 37.933594 28.011719 37.832031 28.277344 37.859375 28.550781 L 33.921875 29.089844 Z M 28.546875 29.828125 C 28.539062 29.828125 28.53125 29.828125 28.523438 29.828125 L 29.058594 19.382812 C 29.273438 19.421875 29.503906 19.414062 29.730469 19.351562 C 29.996094 19.273438 30.226562 19.132812 30.402344 18.945312 L 37.707031 27.347656 L 32.589844 29.273438 Z M 28.8125 29.851562 L 32.339844 29.367188 L 29.6875 30.363281 C 29.464844 30.097656 29.152344 29.914062 28.8125 29.851562 Z M 17.277344 19.527344 L 27.839844 18.003906 C 27.84375 18.109375 27.863281 18.21875 27.894531 18.324219 C 27.898438 18.34375 27.902344 18.359375 27.910156 18.378906 L 18.867188 24.46875 L 16.96875 20.433594 C 17.21875 20.238281 17.34375 19.890625 17.277344 19.527344 Z M 11.007812 17.429688 L 17 12.105469 L 18.847656 13.03125 L 16.742188 18.789062 C 16.574219 18.707031 16.378906 18.683594 16.195312 18.734375 C 15.792969 18.847656 15.558594 19.277344 15.621094 19.734375 L 11.867188 20.671875 Z M 9.640625 1.867188 C 9.75 2.050781 9.921875 2.1875 10.117188 2.253906 L 8.65625 6.066406 C 8.4375 6.023438 8.203125 6.03125 7.972656 6.097656 C 7.742188 6.160156 7.542969 6.277344 7.378906 6.425781 L 4.269531 3.507812 Z M 0.792969 0.242188 L 5.902344 -6.15625 C 6.089844 -6.066406 6.308594 -6.042969 6.527344 -6.101562 C 6.542969 -6.105469 6.554688 -6.113281 6.570312 -6.117188 L 9.917969 0.664062 C 9.597656 0.871094 9.4375 1.269531 9.546875 1.652344 C 9.558594 1.691406 9.570312 1.726562 9.585938 1.761719 L 4.191406 3.433594 Z M -2.214844 -2.175781 L 0.5625 0.433594 L -3.195312 5.140625 C -3.3125 5.035156 -3.453125 4.964844 -3.605469 4.929688 L -2.523438 -1.894531 C -2.40625 -1.976562 -2.304688 -2.070312 -2.214844 -2.175781 Z M -2.234375 -4.09375 C -2.414062 -4.300781 -2.652344 -4.457031 -2.914062 -4.542969 L -1.828125 -6.652344 Z M -2.042969 -3.808594 L 5.445312 -6.65625 C 5.523438 -6.449219 5.667969 -6.285156 5.847656 -6.183594 L 0.75 0.199219 L -2.046875 -2.429688 C -1.875 -2.753906 -1.824219 -3.144531 -1.933594 -3.527344 C -1.960938 -3.625 -1.996094 -3.71875 -2.042969 -3.808594 Z M 0.796875 -11.769531 L 5.53125 -7.4375 C 5.441406 -7.296875 5.390625 -7.128906 5.390625 -6.953125 L -2.179688 -4.074219 L -1.742188 -6.824219 Z M -0.605469 -12.378906 C -0.433594 -12.429688 -0.292969 -12.535156 -0.191406 -12.675781 L 0.570312 -11.980469 L -1.59375 -7.765625 L -0.863281 -12.355469 C -0.78125 -12.347656 -0.691406 -12.355469 -0.605469 -12.378906 Z M -0.0390625 -13.394531 L 1.507812 -13.804688 L 0.597656 -12.035156 L -0.160156 -12.726562 C -0.046875 -12.914062 0 -13.152344 -0.0390625 -13.394531 Z M 1.546875 -13.878906 L -0.046875 -13.453125 C -0.0546875 -13.476562 -0.0585938 -13.5 -0.0664062 -13.523438 C -0.09375 -13.621094 -0.132812 -13.714844 -0.183594 -13.796875 L 3.242188 -17.1875 Z M 6.292969 -20.199219 L 6.285156 -15.144531 L 1.933594 -13.980469 L 3.921875 -17.859375 Z M 6.292969 -20.472656 L 6.292969 -20.285156 L 4.011719 -18.027344 L 5.355469 -20.648438 C 5.632812 -20.492188 5.960938 -20.425781 6.292969 -20.472656 Z M 13.945312 -25.710938 L 14.144531 -18.042969 C 14.117188 -18.035156 14.089844 -18.03125 14.0625 -18.023438 C 13.839844 -17.960938 13.664062 -17.820312 13.550781 -17.640625 L 7.402344 -21.257812 C 7.417969 -21.285156 7.429688 -21.308594 7.441406 -21.335938 L 10.039062 -23.90625 Z M 13.917969 -26.839844 L 13.9375 -26.035156 L 10.660156 -24.519531 L 13.335938 -27.167969 C 13.480469 -26.988281 13.691406 -26.871094 13.917969 -26.839844 Z M 16.128906 -27.046875 L 14.859375 -27.394531 C 14.882812 -27.453125 14.902344 -27.515625 14.914062 -27.578125 L 17.769531 -27.804688 Z M 21.582031 -28.105469 L 20.800781 -25.765625 L 16.574219 -26.921875 L 18.625 -27.871094 Z M 21.671875 -28.371094 L 21.601562 -28.167969 L 18.78125 -27.941406 L 20.980469 -28.960938 C 21.144531 -28.691406 21.390625 -28.488281 21.671875 -28.371094 Z M 23.394531 -28.308594 L 23.199219 -28.605469 C 23.414062 -28.78125 23.570312 -29.015625 23.65625 -29.277344 L 26.902344 -28.585938 Z M 31.5 -27.605469 L 26.941406 -24.609375 C 26.722656 -24.78125 26.429688 -24.851562 26.144531 -24.769531 C 26.027344 -24.738281 25.925781 -24.683594 25.835938 -24.613281 L 23.433594 -28.25 L 27.109375 -28.542969 Z M 33.089844 -28.796875 C 33.101562 -28.753906 33.117188 -28.714844 33.136719 -28.675781 L 31.851562 -27.832031 L 28.148438 -28.625 L 33.058594 -29.011719 C 33.058594 -28.941406 33.070312 -28.871094 33.089844 -28.796875 Z M 39.171875 -20.574219 L 38.101562 -19.511719 C 36.523438 -20.160156 34.335938 -21.058594 32.1875 -21.9375 C 30.445312 -22.652344 28.707031 -23.363281 27.277344 -23.949219 C 27.273438 -24.019531 27.265625 -24.085938 27.246094 -24.152344 C 27.199219 -24.320312 27.105469 -24.460938 26.988281 -24.570312 L 31.582031 -27.585938 L 35.429688 -26.765625 Z M 42.960938 -24.335938 L 39.214844 -20.617188 L 35.511719 -26.75 L 42.722656 -25.210938 C 42.714844 -25.054688 42.730469 -24.898438 42.777344 -24.738281 C 42.816406 -24.59375 42.878906 -24.457031 42.960938 -24.335938 Z M 44.613281 -23.714844 C 44.699219 -23.738281 44.78125 -23.769531 44.863281 -23.808594 L 47.566406 -18.957031 L 41.332031 -18.667969 C 41.164062 -19.082031 40.703125 -19.3125 40.265625 -19.1875 C 40.210938 -19.171875 40.164062 -19.152344 40.117188 -19.128906 L 39.375 -20.355469 L 43.148438 -24.101562 C 43.515625 -23.726562 44.074219 -23.5625 44.613281 -23.714844 Z M 47.929688 -18.914062 L 48.910156 -18.960938 C 48.90625 -18.875 48.917969 -18.785156 48.945312 -18.695312 C 49.027344 -18.40625 49.242188 -18.191406 49.503906 -18.097656 L 49.117188 -16.785156 Z M 49.804688 -12.214844 L 47.910156 -12.425781 L 49.0625 -16.273438 L 50.6875 -13.359375 C 50.207031 -13.152344 49.878906 -12.710938 49.804688 -12.214844 Z M 47.949219 -10.742188 C 48.164062 -10.960938 48.257812 -11.289062 48.167969 -11.609375 C 48.109375 -11.816406 47.980469 -11.988281 47.816406 -12.101562 L 47.824219 -12.136719 L 49.792969 -11.914062 C 49.796875 -11.808594 49.8125 -11.699219 49.84375 -11.589844 C 49.9375 -11.265625 50.128906 -11 50.378906 -10.808594 L 49.472656 -8.371094 Z M 47.621094 -10.53125 C 47.730469 -10.570312 47.824219 -10.628906 47.902344 -10.699219 L 49.445312 -8.300781 L 48.453125 -5.628906 Z M 47.035156 -1.8125 L 43.78125 -6 C 44.035156 -6.21875 44.152344 -6.574219 44.054688 -6.917969 C 44.015625 -7.054688 43.949219 -7.175781 43.859375 -7.273438 L 46.792969 -10.640625 C 47.003906 -10.488281 47.28125 -10.429688 47.554688 -10.507812 C 47.558594 -10.507812 47.5625 -10.507812 47.566406 -10.511719 L 48.414062 -5.519531 Z M 49.171875 0.933594 L 47.25 -1.535156 L 48.511719 -4.929688 L 49.488281 0.832031 C 49.445312 0.839844 49.398438 0.847656 49.355469 0.859375 C 49.289062 0.878906 49.230469 0.902344 49.171875 0.933594 Z M 46.144531 5.75 C 46.265625 5.453125 46.292969 5.117188 46.199219 4.785156 C 46.164062 4.65625 46.109375 4.539062 46.042969 4.429688 L 48.953125 2.335938 C 49.164062 2.554688 49.480469 2.660156 49.792969 2.589844 L 50.367188 7.695312 Z M 44.808594 6.679688 C 44.929688 6.675781 45.050781 6.65625 45.171875 6.621094 C 45.515625 6.523438 45.796875 6.3125 45.988281 6.042969 L 50.410156 8.058594 L 50.90625 12.472656 L 44.988281 15.519531 Z M 43.625 16.21875 C 43.476562 16.007812 43.253906 15.867188 43.019531 15.835938 L 44.417969 6.636719 C 44.449219 6.644531 44.480469 6.652344 44.511719 6.65625 L 44.691406 15.671875 Z M 43.816406 16.738281 C 43.808594 16.675781 43.796875 16.609375 43.777344 16.542969 C 43.75 16.445312 43.710938 16.351562 43.660156 16.269531 L 44.695312 15.738281 L 44.71875 16.890625 Z M 42.488281 17.5 C 42.699219 17.679688 42.972656 17.761719 43.238281 17.6875 C 43.605469 17.582031 43.832031 17.210938 43.820312 16.800781 L 44.71875 16.949219 L 44.847656 23.3125 C 44.765625 23.324219 44.683594 23.339844 44.597656 23.363281 C 44.21875 23.46875 43.917969 23.714844 43.730469 24.027344 L 40.710938 22.710938 Z M 36.496094 12.210938 L 37.273438 11.570312 L 42.242188 16.257812 C 42.132812 16.46875 42.101562 16.734375 42.175781 16.996094 C 42.226562 17.179688 42.320312 17.335938 42.441406 17.453125 L 40.65625 22.6875 L 37.769531 21.425781 Z M 30.746094 18.355469 C 30.828125 18.089844 30.835938 17.800781 30.753906 17.511719 C 30.714844 17.367188 30.652344 17.230469 30.570312 17.109375 L 36.441406 12.257812 L 37.707031 21.398438 Z M 27.558594 9.820312 L 35.445312 10.527344 C 35.441406 10.632812 35.453125 10.742188 35.484375 10.851562 C 35.515625 10.953125 35.554688 11.046875 35.609375 11.128906 L 30.316406 16.8125 C 29.96875 16.5 29.484375 16.359375 29 16.46875 Z M 21.0625 9.710938 C 21.144531 9.574219 21.191406 9.414062 21.191406 9.25 L 27.25 9.792969 L 28.714844 16.5625 C 28.59375 16.617188 28.484375 16.683594 28.386719 16.765625 Z M 19.003906 12.773438 L 19.988281 10.082031 C 20.160156 10.148438 20.351562 10.160156 20.542969 10.105469 C 20.75 10.046875 20.914062 9.921875 21.027344 9.761719 L 28.339844 16.804688 C 28.191406 16.933594 28.070312 17.09375 27.984375 17.269531 Z M 19.597656 9.796875 C 19.6875 9.910156 19.800781 10 19.933594 10.058594 L 18.949219 12.746094 L 17.238281 11.890625 Z M 9.734375 8.136719 C 9.867188 7.839844 9.90625 7.496094 9.816406 7.15625 L 14.902344 4.953125 L 19.695312 8.59375 C 19.457031 8.8125 19.347656 9.15625 19.441406 9.492188 C 19.46875 9.585938 19.507812 9.671875 19.5625 9.746094 L 17.179688 11.863281 Z M 9.585938 8.394531 L 16.941406 12.074219 L 10.988281 17.363281 L 8.761719 8.964844 C 8.769531 8.964844 8.777344 8.960938 8.785156 8.960938 C 9.121094 8.863281 9.398438 8.660156 9.585938 8.394531 Z M 9.234375 6.3125 C 9.144531 6.25 9.046875 6.195312 8.941406 6.152344 L 9.808594 3.894531 Z M 10.648438 2.269531 C 10.808594 2.222656 10.945312 2.136719 11.054688 2.023438 L 14.605469 4.726562 L 9.707031 6.859375 C 9.605469 6.65625 9.460938 6.484375 9.289062 6.351562 L 9.96875 3.476562 L 10.417969 2.300781 C 10.496094 2.300781 10.574219 2.289062 10.648438 2.269531 Z M 7.160156 -6.792969 L 13.625 -6.890625 L 10.757812 0.589844 C 10.574219 0.511719 10.367188 0.492188 10.164062 0.550781 C 10.09375 0.570312 10.027344 0.597656 9.96875 0.632812 L 6.625 -6.136719 C 6.910156 -6.253906 7.105469 -6.503906 7.160156 -6.792969 Z M 6.273438 -7.851562 C 6.195312 -7.851562 6.117188 -7.84375 6.039062 -7.820312 C 5.839844 -7.765625 5.679688 -7.644531 5.566406 -7.488281 L 0.828125 -11.824219 L 1.894531 -13.910156 L 6.285156 -15.082031 Z M 10.6875 -16.257812 L 12.089844 -14.554688 L 6.855469 -7.644531 C 6.710938 -7.769531 6.527344 -7.839844 6.332031 -7.851562 L 6.34375 -15.097656 Z M 13.421875 -17.046875 L 10.960938 -16.390625 L 7.195312 -20.957031 C 7.265625 -21.035156 7.324219 -21.117188 7.375 -21.207031 L 13.519531 -17.585938 C 13.433594 -17.425781 13.394531 -17.238281 13.421875 -17.046875 Z M 14.746094 -16.386719 L 16.613281 -13.257812 L 16.089844 -11.695312 C 15.785156 -11.824219 15.4375 -11.855469 15.09375 -11.757812 C 15.011719 -11.734375 14.933594 -11.703125 14.859375 -11.667969 L 12.316406 -14.753906 L 13.667969 -16.539062 C 13.890625 -16.3125 14.222656 -16.210938 14.550781 -16.304688 C 14.621094 -16.324219 14.683594 -16.351562 14.746094 -16.386719 Z M 23.058594 -13.992188 L 17.808594 -15.894531 L 19.210938 -20.078125 L 25.53125 -23.65625 C 25.609375 -23.386719 25.808594 -23.183594 26.050781 -23.082031 Z M 27.109375 -22.148438 L 30.367188 -13.648438 L 26.367188 -12.792969 L 23.113281 -13.972656 L 26.109375 -23.0625 C 26.238281 -23.019531 26.382812 -23.007812 26.527344 -23.027344 Z M 33.585938 -15.027344 C 33.214844 -15.398438 32.660156 -15.5625 32.121094 -15.410156 C 32.066406 -15.394531 32.011719 -15.375 31.957031 -15.351562 L 26.816406 -23.128906 C 27.09375 -23.28125 27.269531 -23.570312 27.277344 -23.886719 C 28.703125 -23.300781 30.433594 -22.59375 32.164062 -21.882812 C 34.226562 -21.039062 36.285156 -20.191406 37.832031 -19.558594 C 37.910156 -19.527344 37.984375 -19.496094 38.058594 -19.46875 Z M 39.699219 -18.796875 C 39.714844 -18.789062 39.726562 -18.785156 39.738281 -18.78125 C 39.621094 -18.578125 39.578125 -18.328125 39.648438 -18.082031 C 39.660156 -18.039062 39.679688 -17.996094 39.699219 -17.953125 C 39.523438 -17.796875 39.304688 -17.601562 39.035156 -17.355469 C 38.324219 -16.710938 37.335938 -15.808594 36.097656 -14.671875 C 35.800781 -14.398438 35.503906 -14.125 35.210938 -13.855469 L 34.015625 -13.988281 C 34.015625 -14.121094 33.996094 -14.253906 33.960938 -14.386719 C 33.917969 -14.535156 33.855469 -14.671875 33.773438 -14.792969 L 38.355469 -19.34375 C 38.898438 -19.125 39.355469 -18.9375 39.699219 -18.796875 Z M 39.769531 -18.832031 C 39.425781 -18.972656 38.957031 -19.164062 38.402344 -19.390625 L 39.332031 -20.3125 L 40.0625 -19.101562 C 39.945312 -19.03125 39.847656 -18.941406 39.769531 -18.832031 Z M 41.675781 -13.128906 L 35.289062 -13.847656 C 37.035156 -15.453125 38.78125 -17.054688 39.722656 -17.898438 C 39.90625 -17.570312 40.277344 -17.382812 40.652344 -17.445312 Z M 46.222656 -12.617188 L 41.738281 -13.121094 L 40.710938 -17.460938 C 40.726562 -17.460938 40.738281 -17.464844 40.75 -17.46875 C 40.902344 -17.511719 41.035156 -17.589844 41.136719 -17.695312 Z M 46.652344 -12.269531 L 47.0625 -12.222656 C 46.972656 -12.195312 46.886719 -12.15625 46.816406 -12.109375 Z M 43.34375 4.757812 L 39.175781 3.628906 C 39.75 2.21875 40.324219 0.808594 40.898438 -0.601562 L 43.820312 4.042969 C 43.59375 4.230469 43.429688 4.480469 43.34375 4.757812 Z M 43.714844 6.242188 C 43.894531 6.421875 44.117188 6.550781 44.359375 6.621094 L 42.960938 15.828125 C 42.878906 15.824219 42.796875 15.832031 42.71875 15.855469 C 42.527344 15.910156 42.371094 16.035156 42.269531 16.203125 L 37.320312 11.53125 Z M 36.980469 11.210938 C 37.125 10.992188 37.171875 10.695312 37.089844 10.398438 C 37.058594 10.296875 37.015625 10.199219 36.960938 10.117188 L 43.402344 5.785156 C 43.4375 5.863281 43.480469 5.941406 43.527344 6.011719 L 37.101562 11.324219 Z M 36.40625 11.566406 C 36.453125 11.5625 36.5 11.554688 36.546875 11.542969 C 36.710938 11.496094 36.847656 11.394531 36.949219 11.261719 L 37.054688 11.363281 L 36.445312 11.867188 Z M 31.765625 1.925781 L 39.007812 3.890625 C 38.207031 5.851562 37.40625 7.816406 36.605469 9.78125 C 36.425781 9.683594 36.222656 9.652344 36.027344 9.710938 C 35.984375 9.722656 35.941406 9.738281 35.902344 9.757812 Z M 27.542969 9.75 L 30.578125 10.03125 L 27.546875 9.757812 Z M 20.394531 2.570312 L 23.898438 1.050781 C 24.207031 1.625 24.863281 1.9375 25.515625 1.800781 L 26.074219 4.378906 L 20.878906 8.566406 C 20.742188 8.453125 20.574219 8.378906 20.394531 8.359375 Z M 20.335938 2.597656 L 20.335938 8.355469 C 20.246094 8.351562 20.152344 8.363281 20.058594 8.386719 C 19.9375 8.421875 19.828125 8.480469 19.738281 8.554688 L 14.964844 4.925781 Z M 11.265625 1.167969 C 11.238281 1.074219 11.199219 0.992188 11.148438 0.914062 L 19.269531 -6.085938 L 20.332031 -4.855469 L 20.335938 2.230469 L 14.667969 4.699219 L 11.09375 1.980469 C 11.273438 1.761719 11.347656 1.460938 11.265625 1.167969 Z M 13.945312 -6.894531 L 18.511719 -6.960938 L 19.230469 -6.132812 L 11.113281 0.867188 C 11.082031 0.828125 11.046875 0.789062 11.011719 0.753906 Z M 7.113281 -7.289062 L 14.066406 -9.933594 C 14.066406 -9.929688 14.070312 -9.925781 14.070312 -9.921875 C 14.152344 -9.636719 14.308594 -9.398438 14.515625 -9.214844 L 13.644531 -6.949219 L 7.171875 -6.855469 C 7.183594 -6.96875 7.175781 -7.085938 7.144531 -7.203125 C 7.136719 -7.234375 7.125 -7.261719 7.113281 -7.289062 Z M 18.460938 -7.019531 L 13.964844 -6.953125 L 14.765625 -9.035156 C 15.097656 -8.84375 15.507812 -8.78125 15.90625 -8.894531 C 16.152344 -8.964844 16.363281 -9.089844 16.535156 -9.253906 Z M 16.980469 -10.480469 L 18.125 -10.722656 L 19.910156 -7.734375 C 19.695312 -7.570312 19.566406 -7.3125 19.5625 -7.039062 L 18.851562 -7.027344 L 16.726562 -9.484375 C 16.921875 -9.769531 17.019531 -10.121094 16.980469 -10.480469 Z M 16.8125 -12.921875 L 17.964844 -10.992188 L 16.921875 -10.769531 C 16.820312 -11.097656 16.613281 -11.363281 16.351562 -11.546875 Z M 17.511719 -15.941406 L 16.636719 -13.335938 L 14.796875 -16.417969 C 14.941406 -16.515625 15.054688 -16.648438 15.125 -16.804688 Z M 22.378906 -11.9375 L 18.027344 -11.007812 L 16.839844 -12.996094 L 17.789062 -15.839844 L 23.039062 -13.9375 Z M 22.449219 -11.953125 L 23.09375 -13.914062 L 26.257812 -12.769531 Z M 30.988281 -11.054688 L 30.632812 -10.363281 L 21.285156 -7.363281 C 21.230469 -7.496094 21.148438 -7.609375 21.046875 -7.699219 L 22.339844 -11.625 L 26.785156 -12.578125 Z M 31.203125 -11.46875 L 31.015625 -11.105469 L 26.894531 -12.601562 L 30.476562 -13.367188 Z M 31.050781 -13.796875 L 30.429688 -13.660156 L 27.261719 -21.917969 L 31.695312 -15.210938 C 31.238281 -14.902344 30.980469 -14.355469 31.050781 -13.796875 Z M 32.46875 -11.320312 C 32.246094 -11.542969 31.917969 -11.640625 31.59375 -11.546875 C 31.589844 -11.546875 31.582031 -11.542969 31.578125 -11.542969 L 32.101562 -12.554688 C 32.363281 -12.476562 32.652344 -12.46875 32.933594 -12.546875 C 33.0625 -12.585938 33.183594 -12.636719 33.292969 -12.703125 L 33.539062 -12.3125 C 33.117188 -11.925781 32.75 -11.585938 32.46875 -11.320312 Z M 35.304688 -9.503906 C 34.410156 -9.8125 33.53125 -10.125 32.695312 -10.441406 C 32.742188 -10.597656 32.746094 -10.765625 32.699219 -10.933594 C 32.660156 -11.066406 32.59375 -11.183594 32.507812 -11.277344 C 32.84375 -11.589844 33.199219 -11.917969 33.570312 -12.261719 Z M 33.761719 -12.519531 L 33.53125 -12.882812 C 33.765625 -13.097656 33.925781 -13.382812 33.988281 -13.695312 L 34.921875 -13.589844 C 34.515625 -13.210938 34.121094 -12.851562 33.761719 -12.519531 Z M 42.386719 -7.050781 C 40.867188 -7.625 39.207031 -8.183594 37.589844 -8.726562 C 36.980469 -8.933594 36.363281 -9.140625 35.75 -9.351562 L 33.792969 -12.464844 C 34.1875 -12.828125 34.59375 -13.203125 35 -13.578125 L 41.746094 -12.820312 L 42.992188 -7.542969 C 42.980469 -7.539062 42.96875 -7.535156 42.953125 -7.53125 C 42.695312 -7.457031 42.496094 -7.277344 42.386719 -7.050781 Z M 39.023438 -4.144531 L 42.476562 -6.148438 C 42.597656 -5.984375 42.769531 -5.867188 42.960938 -5.8125 C 42.308594 -4.210938 41.652344 -2.605469 41 -1 Z M 30.375 0.988281 C 30.59375 1.160156 30.886719 1.226562 31.171875 1.148438 C 31.207031 1.136719 31.238281 1.125 31.269531 1.113281 L 31.5 1.546875 L 30.140625 1.179688 Z M 26.691406 0.242188 C 26.683594 0.140625 26.667969 0.0390625 26.636719 -0.0625 C 26.539062 -0.410156 26.328125 -0.691406 26.050781 -0.882812 L 26.882812 -2.484375 L 30.183594 -0.199219 C 30.046875 0.0078125 29.996094 0.273438 30.070312 0.53125 C 30.117188 0.699219 30.210938 0.839844 30.332031 0.949219 L 30.070312 1.160156 Z M 25.800781 1.707031 C 26.285156 1.5 26.609375 1.050781 26.679688 0.546875 L 29.78125 1.390625 L 26.335938 4.167969 Z M 20.214844 -7.890625 C 20.121094 -7.863281 20.035156 -7.824219 19.957031 -7.769531 L 18.1875 -10.738281 L 22.273438 -11.613281 L 20.996094 -7.738281 C 20.78125 -7.902344 20.492188 -7.96875 20.214844 -7.890625 Z M 31.242188 -11.539062 L 30.535156 -13.378906 L 31.117188 -13.503906 C 31.242188 -13.132812 31.503906 -12.839844 31.824219 -12.667969 Z M 31.769531 -9.800781 L 31.074219 -0.59375 C 30.949219 -0.613281 30.816406 -0.605469 30.6875 -0.570312 C 30.492188 -0.515625 30.332031 -0.398438 30.21875 -0.25 L 26.910156 -2.539062 L 30.992188 -10.410156 C 31.105469 -10.058594 31.421875 -9.828125 31.769531 -9.800781 Z M 38.734375 -4.046875 L 31.769531 -0.0078125 C 31.664062 -0.304688 31.421875 -0.511719 31.132812 -0.582031 L 31.832031 -9.796875 C 31.914062 -9.796875 32 -9.804688 32.082031 -9.832031 C 32.371094 -9.910156 32.582031 -10.125 32.675781 -10.386719 C 33.535156 -10.0625 34.4375 -9.742188 35.355469 -9.425781 Z M 42.445312 -6.195312 L 38.992188 -4.195312 L 35.800781 -9.269531 C 36.390625 -9.070312 36.984375 -8.871094 37.570312 -8.671875 C 39.1875 -8.128906 40.84375 -7.570312 42.367188 -6.996094 C 42.296875 -6.820312 42.285156 -6.625 42.339844 -6.429688 C 42.363281 -6.34375 42.398438 -6.265625 42.445312 -6.195312 Z M 21.304688 -7.304688 L 30.59375 -10.289062 L 26.664062 -2.710938 L 21.179688 -6.507812 C 21.332031 -6.71875 21.394531 -7 21.316406 -7.273438 C 21.3125 -7.285156 21.308594 -7.296875 21.304688 -7.304688 Z M 20.394531 -5.242188 L 20.394531 -6.140625 C 20.492188 -6.132812 20.597656 -6.144531 20.699219 -6.171875 C 20.878906 -6.222656 21.03125 -6.324219 21.140625 -6.460938 L 26.636719 -2.65625 L 25.789062 -1.023438 C 25.488281 -1.152344 25.140625 -1.183594 24.800781 -1.085938 C 24.585938 -1.027344 24.398438 -0.921875 24.238281 -0.785156 Z M 24.03125 -0.570312 C 23.757812 -0.210938 23.644531 0.265625 23.773438 0.734375 L 20.394531 2.203125 L 20.394531 -4.785156 Z M 19.742188 -6.496094 C 19.886719 -6.304688 20.097656 -6.179688 20.332031 -6.148438 L 20.332031 -5.308594 L 19.496094 -6.28125 Z M 19.707031 -6.542969 L 19.457031 -6.324219 L 18.902344 -6.96875 L 19.566406 -6.976562 C 19.570312 -6.914062 19.578125 -6.851562 19.597656 -6.789062 C 19.621094 -6.699219 19.660156 -6.617188 19.707031 -6.542969 Z M 31.578125 1.566406 L 31.324219 1.089844 C 31.703125 0.902344 31.90625 0.46875 31.789062 0.046875 L 38.765625 -3.996094 L 40.859375 -0.660156 C 40.28125 0.761719 39.699219 2.1875 39.117188 3.613281 Z M 43.378906 5.726562 L 36.929688 10.066406 C 36.855469 9.960938 36.761719 9.875 36.65625 9.808594 C 37.460938 7.839844 38.261719 5.875 39.0625 3.90625 L 43.285156 5.050781 C 43.269531 5.226562 43.285156 5.414062 43.335938 5.597656 C 43.347656 5.640625 43.363281 5.683594 43.378906 5.726562 Z M 15.015625 -17.703125 L 18.820312 -19.859375 L 17.527344 -15.996094 L 15.144531 -16.859375 C 15.207031 -17.03125 15.21875 -17.21875 15.164062 -17.40625 C 15.132812 -17.519531 15.082031 -17.617188 15.015625 -17.703125 Z M 14.601562 -11.511719 C 14.210938 -11.214844 13.984375 -10.734375 14.015625 -10.230469 L 6.957031 -7.546875 C 6.9375 -7.566406 6.921875 -7.585938 6.902344 -7.605469 L 12.128906 -14.507812 Z M 13.628906 -16.582031 L 12.277344 -14.800781 L 11.003906 -16.339844 L 13.429688 -16.988281 C 13.433594 -16.964844 13.441406 -16.941406 13.445312 -16.921875 C 13.484375 -16.792969 13.546875 -16.679688 13.628906 -16.582031 Z M 27.234375 9.722656 L 27.234375 9.730469 L 21.191406 9.1875 C 21.191406 9.179688 21.1875 9.167969 21.1875 9.160156 Z M 21.179688 9.101562 C 21.175781 9.066406 21.167969 9.035156 21.160156 9.003906 C 21.113281 8.847656 21.03125 8.710938 20.921875 8.605469 L 26.089844 4.441406 L 27.21875 9.660156 Z M 36.34375 11.570312 L 36.394531 11.910156 L 30.386719 16.878906 C 30.378906 16.867188 30.367188 16.859375 30.359375 16.851562 L 35.644531 11.179688 C 35.8125 11.421875 36.074219 11.570312 36.34375 11.570312 Z M 35.453125 10.425781 L 27.53125 9.6875 L 26.347656 4.234375 L 29.855469 1.410156 L 31.6875 1.90625 L 35.851562 9.785156 C 35.632812 9.917969 35.488281 10.152344 35.453125 10.425781 Z M 44.984375 3.71875 C 44.78125 3.6875 44.570312 3.699219 44.359375 3.757812 C 44.257812 3.789062 44.15625 3.828125 44.066406 3.878906 L 41.039062 -0.9375 C 41.699219 -2.558594 42.359375 -4.179688 43.019531 -5.800781 C 43.15625 -5.773438 43.296875 -5.773438 43.441406 -5.816406 C 43.550781 -5.847656 43.648438 -5.898438 43.734375 -5.960938 L 47.011719 -1.746094 Z M 47.210938 3.222656 L 45.867188 4.1875 C 45.855469 4.175781 45.84375 4.164062 45.832031 4.152344 Z M 48.785156 2.089844 L 48.757812 2.109375 L 45.789062 4.109375 C 45.640625 3.96875 45.464844 3.863281 45.273438 3.792969 L 47.226562 -1.46875 L 49.121094 0.964844 C 48.792969 1.171875 48.628906 1.570312 48.738281 1.960938 C 48.75 2.007812 48.769531 2.046875 48.785156 2.089844 Z M 46.746094 -10.675781 L 43.816406 -7.316406 C 43.617188 -7.507812 43.335938 -7.601562 43.050781 -7.554688 L 41.808594 -12.8125 L 46.558594 -12.277344 L 46.765625 -12.070312 C 46.484375 -11.855469 46.347656 -11.484375 46.453125 -11.121094 C 46.503906 -10.941406 46.609375 -10.789062 46.746094 -10.675781 Z M 47.761719 -12.144531 L 47.757812 -12.136719 C 47.753906 -12.140625 47.75 -12.144531 47.742188 -12.144531 Z M 41.351562 -18.609375 L 47.597656 -18.898438 L 49 -16.382812 L 47.84375 -12.433594 L 46.316406 -12.605469 L 41.179688 -17.738281 C 41.371094 -17.960938 41.453125 -18.269531 41.367188 -18.570312 C 41.363281 -18.582031 41.355469 -18.59375 41.351562 -18.609375 Z M 25.628906 -24.378906 C 25.511719 -24.1875 25.464844 -23.953125 25.515625 -23.71875 L 19.238281 -20.164062 L 21.066406 -25.628906 Z M 21.925781 -28.191406 L 21.957031 -28.285156 C 22.179688 -28.242188 22.417969 -28.246094 22.648438 -28.3125 C 22.757812 -28.34375 22.859375 -28.386719 22.953125 -28.4375 L 23.054688 -28.28125 Z M 23.09375 -28.222656 L 25.585938 -24.453125 L 21.085938 -25.6875 L 21.90625 -28.128906 Z M 13.996094 -26.0625 L 13.976562 -26.835938 C 14.074219 -26.828125 14.175781 -26.839844 14.277344 -26.867188 C 14.53125 -26.9375 14.730469 -27.117188 14.835938 -27.335938 L 16.042969 -27.007812 Z M 16.488281 -26.886719 L 20.78125 -25.710938 L 18.851562 -19.945312 L 14.976562 -17.75 C 14.785156 -17.96875 14.5 -18.082031 14.203125 -18.050781 L 14.003906 -25.738281 Z M 6.351562 -20.34375 L 6.351562 -20.484375 C 6.398438 -20.492188 6.445312 -20.5 6.488281 -20.515625 C 6.507812 -20.519531 6.523438 -20.523438 6.542969 -20.53125 Z M 6.679688 -20.582031 C 6.785156 -20.628906 6.886719 -20.6875 6.976562 -20.757812 L 10.644531 -16.308594 L 6.34375 -15.160156 L 6.351562 -20.261719 Z M 16.796875 18.820312 L 18.902344 13.054688 L 27.882812 17.550781 C 27.851562 17.675781 27.832031 17.808594 27.835938 17.941406 L 17.265625 19.46875 C 17.261719 19.453125 17.257812 19.4375 17.253906 19.421875 C 17.179688 19.152344 17.007812 18.941406 16.796875 18.820312 Z M 38.53125 27.355469 L 38.5625 27.59375 C 38.542969 27.597656 38.523438 27.601562 38.503906 27.609375 C 38.375 27.644531 38.261719 27.707031 38.167969 27.789062 L 37.976562 27.566406 Z M 37.765625 27.328125 L 30.445312 18.898438 C 30.515625 18.816406 30.578125 18.726562 30.628906 18.628906 L 37.753906 21.742188 L 38.488281 27.054688 Z M 49.246094 -19.636719 C 49.058594 -19.484375 48.9375 -19.261719 48.914062 -19.019531 L 47.898438 -18.972656 L 45.113281 -23.964844 C 45.132812 -23.980469 45.152344 -23.996094 45.171875 -24.015625 Z M 45.601562 -24.632812 L 49.484375 -19.769531 C 49.414062 -19.746094 49.351562 -19.710938 49.292969 -19.671875 L 45.214844 -24.054688 C 45.390625 -24.214844 45.519531 -24.410156 45.601562 -24.632812 Z M 34.191406 -28.183594 C 34.300781 -28.214844 34.398438 -28.265625 34.484375 -28.328125 L 35.21875 -27.113281 L 31.933594 -27.816406 L 33.160156 -28.621094 C 33.355469 -28.257812 33.78125 -28.066406 34.191406 -28.183594 Z M 7.378906 -22.675781 L 9.878906 -23.832031 L 7.492188 -21.472656 C 7.585938 -21.746094 7.601562 -22.050781 7.515625 -22.351562 C 7.480469 -22.46875 7.4375 -22.578125 7.378906 -22.675781 Z M -3.152344 5.179688 L 0.605469 0.472656 L 3.863281 3.535156 L -2.917969 5.632812 C -2.921875 5.609375 -2.925781 5.585938 -2.933594 5.5625 C -2.976562 5.414062 -3.050781 5.285156 -3.152344 5.179688 Z M 21.464844 29.984375 L 18.996094 24.742188 L 28.03125 18.65625 C 28.199219 18.949219 28.460938 19.171875 28.765625 19.296875 L 28.222656 29.863281 C 28.195312 29.871094 28.167969 29.875 28.140625 29.882812 L 22.539062 30.652344 C 22.535156 30.636719 22.535156 30.625 22.53125 30.609375 C 22.398438 30.144531 21.925781 29.875 21.464844 29.984375 Z M 49.898438 17.742188 L 45.015625 16.9375 L 44.988281 15.585938 L 50.914062 12.535156 L 51.285156 15.816406 Z M 51.289062 17.074219 C 50.949219 17.171875 50.726562 17.5 50.710938 17.875 L 50.226562 17.796875 L 51.335938 16.257812 L 51.421875 17.050781 C 51.378906 17.054688 51.335938 17.0625 51.289062 17.074219 Z M 54.492188 9.589844 L 50.433594 7.722656 L 49.851562 2.574219 C 49.910156 2.554688 49.96875 2.53125 50.019531 2.503906 L 54.820312 9.132812 C 54.683594 9.265625 54.570312 9.421875 54.492188 9.589844 Z M 55.722656 -15.730469 C 55.589844 -16.203125 55.09375 -16.480469 54.621094 -16.34375 C 54.535156 -16.320312 54.453125 -16.285156 54.382812 -16.238281 L 45.664062 -24.835938 C 45.710938 -25.066406 45.707031 -25.3125 45.640625 -25.550781 C 45.414062 -26.34375 44.59375 -26.800781 43.800781 -26.578125 C 43.386719 -26.460938 43.0625 -26.175781 42.882812 -25.820312 L 34.8125 -28.816406 C 34.851562 -28.964844 34.851562 -29.125 34.808594 -29.285156 C 34.671875 -29.757812 34.179688 -30.035156 33.707031 -29.902344 C 33.394531 -29.8125 33.171875 -29.574219 33.089844 -29.285156 L 23.730469 -29.789062 C 23.726562 -29.90625 23.710938 -30.03125 23.675781 -30.148438 C 23.453125 -30.941406 22.628906 -31.398438 21.839844 -31.175781 C 21.113281 -30.96875 20.667969 -30.261719 20.769531 -29.535156 L 14.792969 -28.195312 C 14.585938 -28.527344 14.183594 -28.695312 13.789062 -28.585938 C 13.320312 -28.449219 13.046875 -27.964844 13.171875 -27.496094 L 7.011719 -23.109375 C 6.648438 -23.398438 6.15625 -23.511719 5.679688 -23.378906 C 4.886719 -23.152344 4.429688 -22.332031 4.652344 -21.539062 C 4.699219 -21.371094 4.777344 -21.21875 4.875 -21.082031 L -0.570312 -14.152344 C -0.742188 -14.238281 -0.9375 -14.265625 -1.125 -14.210938 C -1.570312 -14.085938 -1.8125 -13.574219 -1.667969 -13.066406 C -1.605469 -12.84375 -1.476562 -12.660156 -1.3125 -12.53125 L -3.359375 -4.609375 C -3.492188 -4.613281 -3.632812 -4.59375 -3.769531 -4.554688 C -4.558594 -4.332031 -5.019531 -3.507812 -4.796875 -2.71875 C -4.648438 -2.195312 -4.234375 -1.816406 -3.746094 -1.6875 L -3.914062 4.921875 C -3.953125 4.925781 -3.996094 4.933594 -4.035156 4.945312 C -4.507812 5.078125 -4.785156 5.574219 -4.652344 6.046875 C -4.523438 6.503906 -4.0625 6.773438 -3.609375 6.675781 L 0.496094 15.34375 C -0.179688 15.632812 -0.554688 16.386719 -0.347656 17.113281 C -0.125 17.90625 0.699219 18.363281 1.488281 18.140625 C 1.714844 18.078125 1.914062 17.960938 2.078125 17.8125 L 3.761719 19.320312 L 4.957031 21.429688 C 4.695312 21.648438 4.574219 22.039062 4.683594 22.429688 C 4.828125 22.9375 5.304688 23.246094 5.746094 23.121094 C 6.148438 23.003906 6.382812 22.574219 6.316406 22.117188 L 6.757812 22.007812 L 12.621094 27.265625 C 12.277344 27.632812 12.125 28.171875 12.273438 28.691406 C 12.5 29.480469 13.320312 29.941406 14.113281 29.71875 C 14.550781 29.59375 14.886719 29.285156 15.0625 28.898438 L 20.808594 30.621094 C 20.769531 30.769531 20.765625 30.933594 20.8125 31.09375 C 20.945312 31.570312 21.441406 31.84375 21.914062 31.710938 C 22.261719 31.613281 22.5 31.320312 22.550781 30.984375 L 27.058594 31.351562 C 27.0625 31.476562 27.078125 31.597656 27.113281 31.722656 C 27.335938 32.511719 28.160156 32.972656 28.949219 32.746094 C 29.734375 32.523438 30.191406 31.714844 29.980469 30.929688 L 37.910156 28.777344 C 38.070312 29.210938 38.539062 29.453125 38.988281 29.324219 C 39.464844 29.191406 39.738281 28.695312 39.605469 28.222656 C 39.589844 28.167969 39.570312 28.117188 39.546875 28.070312 L 43.78125 25.640625 C 44.132812 26.148438 44.78125 26.402344 45.410156 26.226562 C 46.199219 26 46.660156 25.179688 46.4375 24.386719 C 46.375 24.171875 46.269531 23.984375 46.132812 23.824219 L 51.128906 18.769531 C 51.328125 18.914062 51.574219 18.972656 51.808594 18.90625 C 52.253906 18.78125 52.496094 18.269531 52.351562 17.761719 C 52.304688 17.589844 52.214844 17.445312 52.105469 17.328125 L 55.105469 11.507812 C 55.441406 11.699219 55.847656 11.761719 56.246094 11.648438 C 57.039062 11.421875 57.496094 10.601562 57.273438 9.808594 C 57.148438 9.367188 56.835938 9.03125 56.445312 8.859375 L 57.078125 3.046875 C 57.28125 2.828125 57.367188 2.507812 57.28125 2.199219 C 57.257812 2.125 57.230469 2.058594 57.191406 1.992188 L 57.742188 -3.070312 C 58.160156 -3.238281 58.390625 -3.699219 58.265625 -4.140625 C 58.167969 -4.492188 57.867188 -4.734375 57.527344 -4.78125 L 55.234375 -14.675781 C 55.628906 -14.855469 55.84375 -15.300781 55.722656 -15.730469 " fill-opacity="1" fill-rule="nonzero"/></g><g fill="#00a5c8" fill-opacity="1"><g transform="translate(11.130534, 26.423519)"><g><path d="M 32.53125 -20.59375 L 16.140625 -20.59375 L 18.71875 -18.75 L 18.71875 -15.578125 C 20.0625 -16.546875 21.4375 -17.03125 22.84375 -17.03125 C 24.882812 -17.03125 26.660156 -16.207031 28.171875 -14.5625 C 29.691406 -12.914062 30.453125 -10.992188 30.453125 -8.796875 C 30.453125 -5.378906 28.335938 -2.269531 24.109375 0.53125 L 19.828125 -3.9375 C 21.660156 -5.3125 23.019531 -6.460938 23.90625 -7.390625 C 24.800781 -8.328125 25.25 -9.21875 25.25 -10.0625 C 25.25 -10.976562 24.804688 -11.4375 23.921875 -11.4375 C 22.535156 -11.4375 20.800781 -10.226562 18.71875 -7.8125 L 18.71875 0.796875 L 16.953125 1.640625 L 12.59375 -0.734375 L 12.59375 -3.59375 C 12.050781 -3.414062 11.425781 -3.328125 10.71875 -3.328125 C 8.269531 -3.328125 6 -4.148438 3.90625 -5.796875 C 1.8125 -7.441406 0.765625 -9.382812 0.765625 -11.625 C 0.765625 -13.46875 1.394531 -15.003906 2.65625 -16.234375 C 3.914062 -17.472656 5.539062 -18.09375 7.53125 -18.09375 L 9.21875 -17.953125 L 12.59375 -16.1875 L 12.59375 -20.59375 L 0 -20.59375 L -2.1875 -23.453125 L -1.375 -25.0625 L 31.1875 -25.0625 L 33.328125 -22.1875 Z M 7.390625 -7.765625 C 8.222656 -7.710938 9.125 -7.914062 10.09375 -8.375 C 11.070312 -8.832031 11.90625 -9.507812 12.59375 -10.40625 L 12.59375 -13.09375 C 11.820312 -13.363281 11.128906 -13.5 10.515625 -13.5 C 9.367188 -13.5 8.445312 -13.125 7.75 -12.375 C 7.050781 -11.625 6.703125 -10.75 6.703125 -9.75 C 6.703125 -9.007812 6.929688 -8.347656 7.390625 -7.765625 Z M 7.390625 -7.765625 "/></g></g></g><g clip-path="url(#e41eef0efa)"><path fill="#fbfbfb" d="M 19.714844 14.058594 C 19.242188 14.058594 18.824219 14.292969 18.570312 14.648438 L 14.613281 12.691406 C 14.660156 12.550781 14.6875 12.402344 14.6875 12.246094 C 14.6875 12.085938 14.660156 11.933594 14.609375 11.789062 L 18.558594 9.832031 C 18.816406 10.195312 19.238281 10.4375 19.714844 10.4375 C 20.492188 10.4375 21.125 9.804688 21.125 9.027344 C 21.125 8.253906 20.492188 7.621094 19.714844 7.621094 C 18.941406 7.621094 18.308594 8.253906 18.308594 9.027344 C 18.308594 9.183594 18.332031 9.332031 18.378906 9.472656 L 14.425781 11.429688 C 14.167969 11.074219 13.75 10.839844 13.277344 10.839844 C 12.5 10.839844 11.871094 11.472656 11.871094 12.246094 C 11.871094 13.023438 12.5 13.65625 13.277344 13.65625 C 13.757812 13.65625 14.179688 13.414062 14.433594 13.050781 L 18.386719 15.007812 C 18.335938 15.152344 18.308594 15.304688 18.308594 15.464844 C 18.308594 16.242188 18.941406 16.875 19.714844 16.875 C 20.492188 16.875 21.125 16.242188 21.125 15.464844 C 21.125 14.691406 20.492188 14.058594 19.714844 14.058594 Z M 19.714844 14.058594 " fill-opacity="1" fill-rule="nonzero"/></g><g clip-path="url(#56bbd966ee)"><g clip-path="url(#5639c3bc97)"><g clip-path="url(#81ac81a248)"><path fill="#fbfbfb" d="M 17.625 22.121094 C 17.738281 21.664062 17.609375 21.203125 17.324219 20.867188 L 20.175781 17.496094 C 20.300781 17.574219 20.4375 17.636719 20.585938 17.671875 C 20.742188 17.710938 20.898438 17.71875 21.050781 17.707031 L 22.007812 22.011719 C 21.589844 22.171875 21.253906 22.523438 21.140625 22.988281 C 20.957031 23.742188 21.417969 24.507812 22.171875 24.691406 C 22.925781 24.878906 23.691406 24.417969 23.875 23.664062 C 24.0625 22.910156 23.597656 22.144531 22.84375 21.957031 C 22.695312 21.921875 22.546875 21.910156 22.398438 21.921875 L 21.441406 17.613281 C 21.851562 17.449219 22.179688 17.101562 22.292969 16.640625 C 22.476562 15.886719 22.015625 15.125 21.261719 14.9375 C 20.507812 14.753906 19.742188 15.214844 19.558594 15.96875 C 19.441406 16.433594 19.574219 16.902344 19.871094 17.234375 L 17.023438 20.601562 C 16.894531 20.519531 16.75 20.457031 16.59375 20.417969 C 15.84375 20.230469 15.078125 20.695312 14.890625 21.449219 C 14.707031 22.203125 15.167969 22.964844 15.921875 23.152344 C 16.675781 23.335938 17.441406 22.875 17.625 22.121094 Z M 17.625 22.121094 " fill-opacity="1" fill-rule="nonzero"/></g></g></g><g clip-path="url(#289525ee6a)"><g clip-path="url(#0f7cc072e2)"><g clip-path="url(#bf542532ea)"><path fill="#fbfbfb" d="M 26.25 29.710938 C 25.875 29.425781 25.402344 29.355469 24.980469 29.484375 L 23.035156 25.519531 C 23.15625 25.4375 23.269531 25.335938 23.363281 25.214844 C 23.460938 25.085938 23.53125 24.949219 23.582031 24.804688 L 27.90625 25.65625 C 27.886719 26.101562 28.074219 26.546875 28.457031 26.839844 C 29.070312 27.3125 29.957031 27.195312 30.429688 26.578125 C 30.902344 25.964844 30.785156 25.078125 30.167969 24.605469 C 29.554688 24.132812 28.667969 24.25 28.195312 24.863281 C 28.101562 24.988281 28.03125 25.121094 27.984375 25.261719 L 23.652344 24.40625 C 23.667969 23.96875 23.476562 23.527344 23.101562 23.238281 C 22.488281 22.765625 21.601562 22.882812 21.128906 23.5 C 20.65625 24.117188 20.773438 25 21.386719 25.472656 C 21.769531 25.765625 22.25 25.832031 22.675781 25.695312 L 24.617188 29.65625 C 24.492188 29.738281 24.375 29.84375 24.277344 29.972656 C 23.804688 30.589844 23.921875 31.472656 24.535156 31.945312 C 25.152344 32.417969 26.039062 32.300781 26.511719 31.6875 C 26.984375 31.070312 26.867188 30.183594 26.25 29.710938 Z M 26.25 29.710938 " fill-opacity="1" fill-rule="nonzero"/></g></g></g><g clip-path="url(#e2b685feef)"><g clip-path="url(#d1b3f1165d)"><g clip-path="url(#9ca9a81833)"><path fill="#fbfbfb" d="M 35.125 20.015625 C 35.554688 19.820312 35.839844 19.433594 35.925781 19.003906 L 40.339844 19.164062 C 40.355469 19.308594 40.390625 19.453125 40.453125 19.59375 C 40.519531 19.742188 40.609375 19.871094 40.714844 19.980469 L 37.917969 23.390625 C 37.535156 23.164062 37.050781 23.117188 36.617188 23.3125 C 35.90625 23.632812 35.59375 24.46875 35.910156 25.175781 C 36.230469 25.886719 37.066406 26.199219 37.773438 25.882812 C 38.480469 25.5625 38.796875 24.726562 38.476562 24.019531 C 38.414062 23.878906 38.332031 23.753906 38.230469 23.644531 L 41.03125 20.230469 C 41.410156 20.453125 41.886719 20.492188 42.316406 20.300781 C 43.023438 19.980469 43.339844 19.144531 43.023438 18.4375 C 42.703125 17.730469 41.867188 17.414062 41.160156 17.730469 C 40.722656 17.929688 40.4375 18.320312 40.355469 18.761719 L 35.949219 18.601562 C 35.933594 18.449219 35.894531 18.296875 35.832031 18.152344 C 35.511719 17.445312 34.675781 17.128906 33.96875 17.445312 C 33.261719 17.765625 32.945312 18.601562 33.261719 19.308594 C 33.582031 20.015625 34.417969 20.332031 35.125 20.015625 Z M 35.125 20.015625 " fill-opacity="1" fill-rule="nonzero"/></g></g></g><g clip-path="url(#dfd792eaa8)"><g clip-path="url(#7606b7158f)"><g clip-path="url(#237f3432d9)"><path fill="#fbfbfb" d="M 19.894531 10.363281 C 20.363281 10.332031 20.765625 10.070312 21 9.699219 L 25.070312 11.40625 C 25.03125 11.550781 25.015625 11.699219 25.027344 11.855469 C 25.035156 12.015625 25.074219 12.164062 25.132812 12.304688 L 21.3125 14.507812 C 21.035156 14.160156 20.597656 13.945312 20.121094 13.976562 C 19.34375 14.023438 18.753906 14.695312 18.804688 15.46875 C 18.851562 16.242188 19.523438 16.835938 20.296875 16.785156 C 21.070312 16.738281 21.664062 16.066406 21.613281 15.292969 C 21.605469 15.136719 21.570312 14.992188 21.515625 14.855469 L 25.339844 12.652344 C 25.617188 12.992188 26.046875 13.199219 26.519531 13.171875 C 27.292969 13.121094 27.886719 12.453125 27.835938 11.675781 C 27.789062 10.902344 27.117188 10.3125 26.34375 10.359375 C 25.867188 10.390625 25.460938 10.65625 25.226562 11.039062 L 21.160156 9.332031 C 21.203125 9.183594 21.222656 9.027344 21.210938 8.867188 C 21.160156 8.09375 20.492188 7.503906 19.71875 7.550781 C 18.941406 7.597656 18.351562 8.269531 18.398438 9.042969 C 18.449219 9.820312 19.117188 10.410156 19.894531 10.363281 Z M 19.894531 10.363281 " fill-opacity="1" fill-rule="nonzero"/></g></g></g><g clip-path="url(#c6a5a97a14)"><path fill="#fbfbfb" d="M 26.480469 12.992188 C 26.953125 12.992188 27.371094 12.757812 27.625 12.398438 L 31.582031 14.359375 C 31.535156 14.5 31.507812 14.648438 31.507812 14.800781 C 31.507812 14.964844 31.539062 15.117188 31.585938 15.261719 L 27.636719 17.21875 C 27.378906 16.851562 26.957031 16.613281 26.480469 16.613281 C 25.703125 16.613281 25.070312 17.246094 25.070312 18.019531 C 25.070312 18.796875 25.703125 19.429688 26.480469 19.429688 C 27.257812 19.429688 27.886719 18.796875 27.886719 18.019531 C 27.886719 17.867188 27.863281 17.71875 27.816406 17.578125 L 31.773438 15.617188 C 32.027344 15.976562 32.445312 16.210938 32.917969 16.210938 C 33.695312 16.210938 34.324219 15.578125 34.324219 14.800781 C 34.324219 14.027344 33.695312 13.394531 32.917969 13.394531 C 32.4375 13.394531 32.015625 13.632812 31.761719 14 L 27.808594 12.042969 C 27.859375 11.898438 27.886719 11.746094 27.886719 11.582031 C 27.886719 10.808594 27.257812 10.175781 26.480469 10.175781 C 25.703125 10.175781 25.070312 10.808594 25.070312 11.582031 C 25.070312 12.359375 25.703125 12.992188 26.480469 12.992188 Z M 26.480469 12.992188 " fill-opacity="1" fill-rule="nonzero"/></g><g clip-path="url(#792f8e7883)"><g clip-path="url(#bf355afd9e)"><g clip-path="url(#252b2b1910)"><path fill="#fbfbfb" d="M 29.605469 5.921875 C 29.488281 6.378906 29.613281 6.839844 29.898438 7.175781 L 27.027344 10.53125 C 26.90625 10.453125 26.765625 10.390625 26.617188 10.351562 C 26.460938 10.3125 26.304688 10.300781 26.152344 10.316406 L 25.222656 6.003906 C 25.640625 5.847656 25.976562 5.496094 26.09375 5.03125 C 26.285156 4.28125 25.828125 3.511719 25.074219 3.320312 C 24.320312 3.132812 23.554688 3.589844 23.363281 4.34375 C 23.175781 5.09375 23.632812 5.863281 24.382812 6.050781 C 24.535156 6.089844 24.683594 6.101562 24.832031 6.089844 L 25.761719 10.40625 C 25.351562 10.566406 25.023438 10.914062 24.90625 11.371094 C 24.714844 12.125 25.175781 12.890625 25.925781 13.082031 C 26.679688 13.273438 27.445312 12.816406 27.636719 12.0625 C 27.753906 11.597656 27.625 11.128906 27.332031 10.792969 L 30.199219 7.441406 C 30.328125 7.527344 30.46875 7.589844 30.625 7.628906 C 31.378906 7.820312 32.144531 7.363281 32.335938 6.609375 C 32.527344 5.859375 32.070312 5.089844 31.316406 4.898438 C 30.5625 4.710938 29.796875 5.167969 29.605469 5.921875 Z M 29.605469 5.921875 " fill-opacity="1" fill-rule="nonzero"/></g></g></g><path stroke-linecap="butt" transform="matrix(0.220224, 0.237141, -0.237141, 0.220224, 22.399227, 14.109449)" fill="none" stroke-linejoin="miter" d="M -0.000587872 0.496952 L 20.539977 0.497294 " stroke="#fbfbfb" stroke-width="1" stroke-opacity="1" stroke-miterlimit="4"/><path stroke-linecap="butt" transform="matrix(-0.203834, 0.251369, -0.251369, -0.203834, 26.850399, 18.077696)" fill="none" stroke-linejoin="miter" d="M -0.00171757 0.49404 L 20.215902 0.494266 " stroke="#fbfbfb" stroke-width="1" stroke-opacity="1" stroke-miterlimit="4"/><path stroke-linecap="butt" transform="matrix(0.115819, 0.302193, -0.302193, 0.115819, 26.878112, 17.917254)" fill="none" stroke-linejoin="miter" d="M 0.00353583 0.502856 L 25.663314 0.500338 " stroke="#fbfbfb" stroke-width="1" stroke-opacity="1" stroke-miterlimit="4"/><path stroke-linecap="butt" transform="matrix(0.0944825, 0.309528, -0.309528, 0.0944825, 13.824965, 12.312096)" fill="none" stroke-linejoin="miter" d="M 0.00162089 0.495088 L 29.921082 0.503637 " stroke="#fbfbfb" stroke-width="1" stroke-opacity="1" stroke-miterlimit="4"/><path stroke-linecap="butt" transform="matrix(0.115086, 0.302473, -0.302473, 0.115086, 35.189305, 19.04679)" fill="none" stroke-linejoin="miter" d="M 0.00437305 0.498378 L 19.60595 0.50485 " stroke="#fbfbfb" stroke-width="1" stroke-opacity="1" stroke-miterlimit="4"/><path stroke-linecap="butt" transform="matrix(-0.0353838, 0.321687, -0.321687, -0.0353838, 34.487874, 7.63875)" fill="none" stroke-linejoin="miter" d="M -0.000259186 0.496626 L 21.954487 0.498182 " stroke="#fbfbfb" stroke-width="1" stroke-opacity="1" stroke-miterlimit="4"/><path stroke-linecap="butt" transform="matrix(0.192793, 0.259933, -0.259933, 0.192793, 34.294373, 9.14309)" fill="none" stroke-linejoin="miter" d="M -0.00362469 0.498634 L 37.892601 0.504245 " stroke="#fbfbfb" stroke-width="1" stroke-opacity="1" stroke-miterlimit="4"/><g clip-path="url(#7ddb0cb993)"><path stroke-linecap="butt" transform="matrix(0.220224, 0.237141, -0.237141, 0.220224, 27.556692, 1.1308)" fill="none" stroke-linejoin="miter" d="M 0.00158267 0.504089 L 20.533302 0.496217 " stroke="#fbfbfb" stroke-width="1" stroke-opacity="1" stroke-miterlimit="4"/></g><g clip-path="url(#6dc3e82eb0)"><g clip-path="url(#5b21ef823c)"><g clip-path="url(#a93028c834)"><path fill="#fbfbfb" d="M 41.980469 5.765625 C 41.59375 6.035156 41.382812 6.464844 41.375 6.902344 L 37.007812 7.546875 C 36.964844 7.402344 36.902344 7.265625 36.816406 7.140625 C 36.722656 7.007812 36.613281 6.898438 36.492188 6.808594 L 38.625 2.949219 C 39.039062 3.105469 39.523438 3.058594 39.917969 2.789062 C 40.554688 2.347656 40.714844 1.464844 40.273438 0.828125 C 39.832031 0.191406 38.953125 0.03125 38.3125 0.472656 C 37.675781 0.914062 37.515625 1.792969 37.957031 2.433594 C 38.046875 2.558594 38.152344 2.667969 38.269531 2.753906 L 36.136719 6.621094 C 35.722656 6.472656 35.246094 6.515625 34.855469 6.785156 C 34.21875 7.226562 34.058594 8.105469 34.5 8.746094 C 34.941406 9.382812 35.820312 9.542969 36.460938 9.101562 C 36.851562 8.828125 37.0625 8.390625 37.066406 7.945312 L 41.429688 7.300781 C 41.46875 7.449219 41.535156 7.589844 41.625 7.722656 C 42.066406 8.363281 42.945312 8.519531 43.585938 8.078125 C 44.222656 7.636719 44.382812 6.757812 43.941406 6.121094 C 43.496094 5.480469 42.617188 5.320312 41.980469 5.765625 Z M 41.980469 5.765625 " fill-opacity="1" fill-rule="nonzero"/></g></g></g><path stroke-linecap="butt" transform="matrix(0.220224, 0.237141, -0.237141, 0.220224, 39.327337, 1.969968)" fill="none" stroke-linejoin="miter" d="M 0.0007704 0.508034 L 20.53249 0.500162 " stroke="#fbfbfb" stroke-width="1" stroke-opacity="1" stroke-miterlimit="4"/><g clip-path="url(#d21c77b805)"><path stroke-linecap="butt" transform="matrix(0.133911, -0.294622, 0.294622, 0.133911, 24.233944, 5.228732)" fill="none" stroke-linejoin="miter" d="M -0.00134823 0.505898 L 20.535825 0.505354 " stroke="#fbfbfb" stroke-width="1" stroke-opacity="1" stroke-miterlimit="4"/></g><g clip-path="url(#0af143a21f)"><g clip-path="url(#0e20d36fd5)"><g clip-path="url(#5ec5622698)"><path fill="#fbfbfb" d="M 12.480469 3.726562 C 12.910156 3.53125 13.195312 3.144531 13.28125 2.714844 L 17.691406 2.875 C 17.707031 3.019531 17.746094 3.167969 17.808594 3.308594 C 17.875 3.453125 17.964844 3.582031 18.066406 3.691406 L 15.273438 7.105469 C 14.890625 6.875 14.40625 6.828125 13.96875 7.027344 C 13.261719 7.347656 12.945312 8.183594 13.265625 8.890625 C 13.585938 9.597656 14.417969 9.914062 15.128906 9.59375 C 15.835938 9.273438 16.152344 8.4375 15.832031 7.730469 C 15.769531 7.589844 15.683594 7.464844 15.582031 7.359375 L 18.382812 3.941406 C 18.761719 4.164062 19.242188 4.207031 19.671875 4.011719 C 20.378906 3.691406 20.695312 2.855469 20.375 2.148438 C 20.054688 1.441406 19.21875 1.125 18.511719 1.445312 C 18.078125 1.640625 17.789062 2.035156 17.707031 2.472656 L 13.300781 2.3125 C 13.285156 2.160156 13.25 2.011719 13.183594 1.863281 C 12.863281 1.15625 12.027344 0.839844 11.320312 1.160156 C 10.613281 1.480469 10.296875 2.316406 10.617188 3.023438 C 10.9375 3.730469 11.773438 4.046875 12.480469 3.726562 Z M 12.480469 3.726562 " fill-opacity="1" fill-rule="nonzero"/></g></g></g><g clip-path="url(#a15d683113)"><path stroke-linecap="butt" transform="matrix(0.133911, -0.294622, 0.294622, 0.133911, 9.11777, 7.486125)" fill="none" stroke-linejoin="miter" d="M -0.00382593 0.503583 L 20.533348 0.503039 " stroke="#fbfbfb" stroke-width="1" stroke-opacity="1" stroke-miterlimit="4"/></g><path stroke-linecap="butt" transform="matrix(-0.301405, -0.117854, 0.117854, -0.301405, 24.737182, 4.844941)" fill="none" stroke-linejoin="miter" d="M -0.00341345 0.49777 L 21.173808 0.498663 " stroke="#fbfbfb" stroke-width="1" stroke-opacity="1" stroke-miterlimit="4"/><g clip-path="url(#27bfe0149e)"><path stroke-linecap="butt" transform="matrix(0.23384, -0.223726, 0.223726, 0.23384, 31.297274, 5.030007)" fill="none" stroke-linejoin="miter" d="M -0.000952056 0.505549 L 17.952117 0.492904 " stroke="#fbfbfb" stroke-width="1" stroke-opacity="1" stroke-miterlimit="4"/></g><g clip-path="url(#57555224c9)"><path stroke-linecap="butt" transform="matrix(-0.0413957, -0.320969, 0.320969, -0.0413957, 36.443306, 6.96908)" fill="none" stroke-linejoin="miter" d="M -0.00322729 0.504814 L 17.838159 0.505669 " stroke="#fbfbfb" stroke-width="1" stroke-opacity="1" stroke-miterlimit="4"/></g></g></g></g><g clip-path="url(#e309117e1c)"><g transform="matrix(1, 0, 0, 1, 44, 2)"><g clip-path="url(#d4f86e66a4)"><g clip-path="url(#efc4c7140c)"><g transform="matrix(1, 0, 0, 1, 0, 1)"><g clip-path="url(#2d8c252158)"><g fill="#ff00ff" fill-opacity="1"><g transform="translate(1.607095, 17.281897)"><g><path d="M 10.859375 -7.828125 L 5.265625 -7.828125 L 5.890625 -7.28125 L 5.890625 -5 C 6.472656 -5.5625 7.085938 -5.84375 7.734375 -5.84375 C 8.359375 -5.84375 8.898438 -5.59375 9.359375 -5.09375 C 9.816406 -4.59375 10.046875 -4 10.046875 -3.3125 C 10.046875 -2.175781 9.332031 -1.128906 7.90625 -0.171875 L 7.015625 -1.171875 C 8.410156 -2.148438 9.109375 -3.007812 9.109375 -3.75 C 9.109375 -4.03125 9.023438 -4.269531 8.859375 -4.46875 C 8.691406 -4.664062 8.429688 -4.765625 8.078125 -4.765625 C 7.390625 -4.765625 6.660156 -4.273438 5.890625 -3.296875 L 5.890625 0.375 L 5.546875 0.484375 L 4.6875 -0.078125 L 4.6875 -2.015625 C 4.289062 -1.671875 3.84375 -1.5 3.34375 -1.5 C 2.625 -1.5 1.945312 -1.789062 1.3125 -2.375 C 0.675781 -2.957031 0.359375 -3.609375 0.359375 -4.328125 C 0.359375 -4.921875 0.578125 -5.421875 1.015625 -5.828125 C 1.453125 -6.234375 1.96875 -6.4375 2.5625 -6.4375 C 2.769531 -6.4375 2.972656 -6.40625 3.171875 -6.34375 L 4.6875 -5.625 L 4.6875 -7.828125 L 0 -7.828125 L -0.4375 -8.5625 L -0.3125 -8.859375 L 10.5625 -8.859375 L 11 -8.125 Z M 1.8125 -2.71875 C 2.09375 -2.550781 2.382812 -2.46875 2.6875 -2.46875 C 3.46875 -2.46875 4.132812 -2.828125 4.6875 -3.546875 L 4.6875 -4.890625 C 4.113281 -5.210938 3.601562 -5.375 3.15625 -5.375 C 2.65625 -5.375 2.25 -5.210938 1.9375 -4.890625 C 1.625 -4.578125 1.46875 -4.203125 1.46875 -3.765625 C 1.46875 -3.390625 1.582031 -3.039062 1.8125 -2.71875 Z M 1.8125 -2.71875 "/></g></g></g><g fill="#ff00ff" fill-opacity="1"><g transform="translate(12.156906, 17.281897)"><g><path d="M 4.140625 -7.828125 L 1.890625 -7.828125 L 2.515625 -7.28125 L 2.515625 0.375 L 2.171875 0.484375 L 1.3125 -0.078125 L 1.3125 -7.828125 L 0 -7.828125 L -0.4375 -8.5625 L -0.3125 -8.859375 L 1.140625 -8.859375 L -0.328125 -10.90625 C -0.765625 -11.488281 -1.265625 -11.78125 -1.828125 -11.78125 C -2.253906 -11.78125 -2.753906 -11.597656 -3.328125 -11.234375 L -4.015625 -12.34375 C -3.453125 -12.8125 -2.878906 -13.046875 -2.296875 -13.046875 C -1.410156 -13.046875 -0.59375 -12.507812 0.15625 -11.4375 L 1.953125 -8.859375 L 3.828125 -8.859375 L 4.265625 -8.125 Z M 4.140625 -7.828125 "/></g></g></g><g fill="#ff00ff" fill-opacity="1"><g transform="translate(15.983939, 17.281897)"><g><path d="M 8.9375 -7.828125 L 6.46875 -7.828125 L 7.09375 -7.28125 L 7.09375 -5.359375 L 4.109375 -5.359375 C 3.066406 -5.359375 2.546875 -5.039062 2.546875 -4.40625 C 2.546875 -4.0625 2.726562 -3.738281 3.09375 -3.4375 L 5.578125 -4.21875 C 6.234375 -4.082031 6.773438 -3.769531 7.203125 -3.28125 C 7.640625 -2.789062 7.859375 -2.25 7.859375 -1.65625 C 7.859375 -1.03125 7.613281 -0.503906 7.125 -0.078125 C 6.644531 0.335938 6.015625 0.546875 5.234375 0.546875 C 4.453125 0.546875 3.675781 0.289062 2.90625 -0.21875 C 2.132812 -0.738281 1.335938 -1.628906 0.515625 -2.890625 L 1.046875 -3.296875 C 2.140625 -1.503906 3.375 -0.609375 4.75 -0.609375 C 5.332031 -0.609375 5.816406 -0.765625 6.203125 -1.078125 C 6.585938 -1.390625 6.78125 -1.773438 6.78125 -2.234375 C 6.78125 -2.523438 6.695312 -2.789062 6.53125 -3.03125 L 4.1875 -2.25 C 3.726562 -2.320312 3.289062 -2.5 2.875 -2.78125 C 2.457031 -3.0625 2.117188 -3.394531 1.859375 -3.78125 C 1.609375 -4.175781 1.484375 -4.554688 1.484375 -4.921875 C 1.484375 -5.378906 1.679688 -5.773438 2.078125 -6.109375 C 2.472656 -6.441406 3.054688 -6.609375 3.828125 -6.609375 L 5.953125 -6.609375 L 5.953125 -7.828125 L 0 -7.828125 L -0.4375 -8.5625 L -0.3125 -8.859375 L 8.640625 -8.859375 L 9.078125 -8.125 Z M 8.9375 -7.828125 "/></g></g></g><g fill="#ff00ff" fill-opacity="1"><g transform="translate(24.612959, 17.281897)"><g><path d="M 6.015625 -7.828125 L 3.328125 -7.828125 L 3.96875 -7.3125 L 3.96875 -5.375 C 3.96875 -4.757812 3.484375 -3.972656 2.515625 -3.015625 L 5.8125 -0.328125 L 5.828125 -0.078125 L 5.03125 0.6875 L 0.5 -3.953125 L 0.8125 -4.8125 L 2.640625 -4.8125 C 2.710938 -5.019531 2.75 -5.25 2.75 -5.5 L 2.75 -7.828125 L 0 -7.828125 L -0.4375 -8.5625 L -0.3125 -8.859375 L 5.703125 -8.859375 L 6.140625 -8.125 Z M 6.015625 -7.828125 "/></g></g></g><g clip-path="url(#4e20526e29)"><g fill="#00ffff" fill-opacity="1"><g transform="translate(1.061053, 17.281897)"><g><path d="M 10.859375 -7.828125 L 5.265625 -7.828125 L 5.890625 -7.28125 L 5.890625 -5 C 6.472656 -5.5625 7.085938 -5.84375 7.734375 -5.84375 C 8.359375 -5.84375 8.898438 -5.59375 9.359375 -5.09375 C 9.816406 -4.59375 10.046875 -4 10.046875 -3.3125 C 10.046875 -2.175781 9.332031 -1.128906 7.90625 -0.171875 L 7.015625 -1.171875 C 8.410156 -2.148438 9.109375 -3.007812 9.109375 -3.75 C 9.109375 -4.03125 9.023438 -4.269531 8.859375 -4.46875 C 8.691406 -4.664062 8.429688 -4.765625 8.078125 -4.765625 C 7.390625 -4.765625 6.660156 -4.273438 5.890625 -3.296875 L 5.890625 0.375 L 5.546875 0.484375 L 4.6875 -0.078125 L 4.6875 -2.015625 C 4.289062 -1.671875 3.84375 -1.5 3.34375 -1.5 C 2.625 -1.5 1.945312 -1.789062 1.3125 -2.375 C 0.675781 -2.957031 0.359375 -3.609375 0.359375 -4.328125 C 0.359375 -4.921875 0.578125 -5.421875 1.015625 -5.828125 C 1.453125 -6.234375 1.96875 -6.4375 2.5625 -6.4375 C 2.769531 -6.4375 2.972656 -6.40625 3.171875 -6.34375 L 4.6875 -5.625 L 4.6875 -7.828125 L 0 -7.828125 L -0.4375 -8.5625 L -0.3125 -8.859375 L 10.5625 -8.859375 L 11 -8.125 Z M 1.8125 -2.71875 C 2.09375 -2.550781 2.382812 -2.46875 2.6875 -2.46875 C 3.46875 -2.46875 4.132812 -2.828125 4.6875 -3.546875 L 4.6875 -4.890625 C 4.113281 -5.210938 3.601562 -5.375 3.15625 -5.375 C 2.65625 -5.375 2.25 -5.210938 1.9375 -4.890625 C 1.625 -4.578125 1.46875 -4.203125 1.46875 -3.765625 C 1.46875 -3.390625 1.582031 -3.039062 1.8125 -2.71875 Z M 1.8125 -2.71875 "/></g></g></g></g><g fill="#00ffff" fill-opacity="1"><g transform="translate(11.610865, 17.281897)"><g><path d="M 4.140625 -7.828125 L 1.890625 -7.828125 L 2.515625 -7.28125 L 2.515625 0.375 L 2.171875 0.484375 L 1.3125 -0.078125 L 1.3125 -7.828125 L 0 -7.828125 L -0.4375 -8.5625 L -0.3125 -8.859375 L 1.140625 -8.859375 L -0.328125 -10.90625 C -0.765625 -11.488281 -1.265625 -11.78125 -1.828125 -11.78125 C -2.253906 -11.78125 -2.753906 -11.597656 -3.328125 -11.234375 L -4.015625 -12.34375 C -3.453125 -12.8125 -2.878906 -13.046875 -2.296875 -13.046875 C -1.410156 -13.046875 -0.59375 -12.507812 0.15625 -11.4375 L 1.953125 -8.859375 L 3.828125 -8.859375 L 4.265625 -8.125 Z M 4.140625 -7.828125 "/></g></g></g><g fill="#00ffff" fill-opacity="1"><g transform="translate(15.437898, 17.281897)"><g><path d="M 8.9375 -7.828125 L 6.46875 -7.828125 L 7.09375 -7.28125 L 7.09375 -5.359375 L 4.109375 -5.359375 C 3.066406 -5.359375 2.546875 -5.039062 2.546875 -4.40625 C 2.546875 -4.0625 2.726562 -3.738281 3.09375 -3.4375 L 5.578125 -4.21875 C 6.234375 -4.082031 6.773438 -3.769531 7.203125 -3.28125 C 7.640625 -2.789062 7.859375 -2.25 7.859375 -1.65625 C 7.859375 -1.03125 7.613281 -0.503906 7.125 -0.078125 C 6.644531 0.335938 6.015625 0.546875 5.234375 0.546875 C 4.453125 0.546875 3.675781 0.289062 2.90625 -0.21875 C 2.132812 -0.738281 1.335938 -1.628906 0.515625 -2.890625 L 1.046875 -3.296875 C 2.140625 -1.503906 3.375 -0.609375 4.75 -0.609375 C 5.332031 -0.609375 5.816406 -0.765625 6.203125 -1.078125 C 6.585938 -1.390625 6.78125 -1.773438 6.78125 -2.234375 C 6.78125 -2.523438 6.695312 -2.789062 6.53125 -3.03125 L 4.1875 -2.25 C 3.726562 -2.320312 3.289062 -2.5 2.875 -2.78125 C 2.457031 -3.0625 2.117188 -3.394531 1.859375 -3.78125 C 1.609375 -4.175781 1.484375 -4.554688 1.484375 -4.921875 C 1.484375 -5.378906 1.679688 -5.773438 2.078125 -6.109375 C 2.472656 -6.441406 3.054688 -6.609375 3.828125 -6.609375 L 5.953125 -6.609375 L 5.953125 -7.828125 L 0 -7.828125 L -0.4375 -8.5625 L -0.3125 -8.859375 L 8.640625 -8.859375 L 9.078125 -8.125 Z M 8.9375 -7.828125 "/></g></g></g><g fill="#00ffff" fill-opacity="1"><g transform="translate(24.066917, 17.281897)"><g><path d="M 6.015625 -7.828125 L 3.328125 -7.828125 L 3.96875 -7.3125 L 3.96875 -5.375 C 3.96875 -4.757812 3.484375 -3.972656 2.515625 -3.015625 L 5.8125 -0.328125 L 5.828125 -0.078125 L 5.03125 0.6875 L 0.5 -3.953125 L 0.8125 -4.8125 L 2.640625 -4.8125 C 2.710938 -5.019531 2.75 -5.25 2.75 -5.5 L 2.75 -7.828125 L 0 -7.828125 L -0.4375 -8.5625 L -0.3125 -8.859375 L 5.703125 -8.859375 L 6.140625 -8.125 Z M 6.015625 -7.828125 "/></g></g></g><g clip-path="url(#4c99a9b08d)"><g fill="#00a5c8" fill-opacity="1"><g transform="translate(1.334074, 17.281897)"><g><path d="M 10.859375 -7.828125 L 5.265625 -7.828125 L 5.890625 -7.28125 L 5.890625 -5 C 6.472656 -5.5625 7.085938 -5.84375 7.734375 -5.84375 C 8.359375 -5.84375 8.898438 -5.59375 9.359375 -5.09375 C 9.816406 -4.59375 10.046875 -4 10.046875 -3.3125 C 10.046875 -2.175781 9.332031 -1.128906 7.90625 -0.171875 L 7.015625 -1.171875 C 8.410156 -2.148438 9.109375 -3.007812 9.109375 -3.75 C 9.109375 -4.03125 9.023438 -4.269531 8.859375 -4.46875 C 8.691406 -4.664062 8.429688 -4.765625 8.078125 -4.765625 C 7.390625 -4.765625 6.660156 -4.273438 5.890625 -3.296875 L 5.890625 0.375 L 5.546875 0.484375 L 4.6875 -0.078125 L 4.6875 -2.015625 C 4.289062 -1.671875 3.84375 -1.5 3.34375 -1.5 C 2.625 -1.5 1.945312 -1.789062 1.3125 -2.375 C 0.675781 -2.957031 0.359375 -3.609375 0.359375 -4.328125 C 0.359375 -4.921875 0.578125 -5.421875 1.015625 -5.828125 C 1.453125 -6.234375 1.96875 -6.4375 2.5625 -6.4375 C 2.769531 -6.4375 2.972656 -6.40625 3.171875 -6.34375 L 4.6875 -5.625 L 4.6875 -7.828125 L 0 -7.828125 L -0.4375 -8.5625 L -0.3125 -8.859375 L 10.5625 -8.859375 L 11 -8.125 Z M 1.8125 -2.71875 C 2.09375 -2.550781 2.382812 -2.46875 2.6875 -2.46875 C 3.46875 -2.46875 4.132812 -2.828125 4.6875 -3.546875 L 4.6875 -4.890625 C 4.113281 -5.210938 3.601562 -5.375 3.15625 -5.375 C 2.65625 -5.375 2.25 -5.210938 1.9375 -4.890625 C 1.625 -4.578125 1.46875 -4.203125 1.46875 -3.765625 C 1.46875 -3.390625 1.582031 -3.039062 1.8125 -2.71875 Z M 1.8125 -2.71875 "/></g></g></g></g><g fill="#00a5c8" fill-opacity="1"><g transform="translate(11.883886, 17.281897)"><g><path d="M 4.140625 -7.828125 L 1.890625 -7.828125 L 2.515625 -7.28125 L 2.515625 0.375 L 2.171875 0.484375 L 1.3125 -0.078125 L 1.3125 -7.828125 L 0 -7.828125 L -0.4375 -8.5625 L -0.3125 -8.859375 L 1.140625 -8.859375 L -0.328125 -10.90625 C -0.765625 -11.488281 -1.265625 -11.78125 -1.828125 -11.78125 C -2.253906 -11.78125 -2.753906 -11.597656 -3.328125 -11.234375 L -4.015625 -12.34375 C -3.453125 -12.8125 -2.878906 -13.046875 -2.296875 -13.046875 C -1.410156 -13.046875 -0.59375 -12.507812 0.15625 -11.4375 L 1.953125 -8.859375 L 3.828125 -8.859375 L 4.265625 -8.125 Z M 4.140625 -7.828125 "/></g></g></g><g fill="#00a5c8" fill-opacity="1"><g transform="translate(15.710919, 17.281897)"><g><path d="M 8.9375 -7.828125 L 6.46875 -7.828125 L 7.09375 -7.28125 L 7.09375 -5.359375 L 4.109375 -5.359375 C 3.066406 -5.359375 2.546875 -5.039062 2.546875 -4.40625 C 2.546875 -4.0625 2.726562 -3.738281 3.09375 -3.4375 L 5.578125 -4.21875 C 6.234375 -4.082031 6.773438 -3.769531 7.203125 -3.28125 C 7.640625 -2.789062 7.859375 -2.25 7.859375 -1.65625 C 7.859375 -1.03125 7.613281 -0.503906 7.125 -0.078125 C 6.644531 0.335938 6.015625 0.546875 5.234375 0.546875 C 4.453125 0.546875 3.675781 0.289062 2.90625 -0.21875 C 2.132812 -0.738281 1.335938 -1.628906 0.515625 -2.890625 L 1.046875 -3.296875 C 2.140625 -1.503906 3.375 -0.609375 4.75 -0.609375 C 5.332031 -0.609375 5.816406 -0.765625 6.203125 -1.078125 C 6.585938 -1.390625 6.78125 -1.773438 6.78125 -2.234375 C 6.78125 -2.523438 6.695312 -2.789062 6.53125 -3.03125 L 4.1875 -2.25 C 3.726562 -2.320312 3.289062 -2.5 2.875 -2.78125 C 2.457031 -3.0625 2.117188 -3.394531 1.859375 -3.78125 C 1.609375 -4.175781 1.484375 -4.554688 1.484375 -4.921875 C 1.484375 -5.378906 1.679688 -5.773438 2.078125 -6.109375 C 2.472656 -6.441406 3.054688 -6.609375 3.828125 -6.609375 L 5.953125 -6.609375 L 5.953125 -7.828125 L 0 -7.828125 L -0.4375 -8.5625 L -0.3125 -8.859375 L 8.640625 -8.859375 L 9.078125 -8.125 Z M 8.9375 -7.828125 "/></g></g></g><g fill="#00a5c8" fill-opacity="1"><g transform="translate(24.339938, 17.281897)"><g><path d="M 6.015625 -7.828125 L 3.328125 -7.828125 L 3.96875 -7.3125 L 3.96875 -5.375 C 3.96875 -4.757812 3.484375 -3.972656 2.515625 -3.015625 L 5.8125 -0.328125 L 5.828125 -0.078125 L 5.03125 0.6875 L 0.5 -3.953125 L 0.8125 -4.8125 L 2.640625 -4.8125 C 2.710938 -5.019531 2.75 -5.25 2.75 -5.5 L 2.75 -7.828125 L 0 -7.828125 L -0.4375 -8.5625 L -0.3125 -8.859375 L 5.703125 -8.859375 L 6.140625 -8.125 Z M 6.015625 -7.828125 "/></g></g></g></g></g></g><g clip-path="url(#fd391b9279)"><g transform="matrix(1, 0, 0, 1, 31, 0.000000000000005773)"><g clip-path="url(#9b13b4d576)"><g fill="#ff00ff" fill-opacity="1"><g transform="translate(1.578843, 16.656568)"><g><path d="M 7.46875 -6.296875 L 6.53125 -5.9375 C 5.976562 -4.144531 5.410156 -2.4375 4.828125 -0.8125 C 4.460938 0.0507812 4.015625 0.804688 3.484375 1.453125 C 2.960938 2.109375 2.300781 2.675781 1.5 3.15625 L 0.765625 1.828125 C 1.953125 1.335938 2.859375 0.75 3.484375 0.0625 C 3.171875 -0.0507812 2.910156 -0.203125 2.703125 -0.390625 L 0.65625 -6.0625 L -0.140625 -6.109375 L -0.125 -6.8125 L 2.921875 -6.8125 L 3.015625 -6.296875 L 2.171875 -5.96875 L 3.28125 -2.65625 L 3.53125 -0.96875 L 3.796875 -0.96875 C 4.347656 -2.507812 4.835938 -4.207031 5.265625 -6.0625 L 4.390625 -6.109375 L 4.40625 -6.8125 L 7.390625 -6.8125 Z M 7.46875 -6.296875 "/></g></g></g><g fill="#ff00ff" fill-opacity="1"><g transform="translate(8.904105, 16.656568)"><g><path d="M 8.125 -0.453125 L 6.65625 0.21875 C 6.5 0.195312 6.304688 0.078125 6.078125 -0.140625 C 5.847656 -0.367188 5.691406 -0.609375 5.609375 -0.859375 C 5.117188 -0.546875 4.601562 -0.285156 4.0625 -0.078125 C 3.519531 0.117188 3.097656 0.21875 2.796875 0.21875 C 2.265625 0.101562 1.835938 -0.210938 1.515625 -0.734375 C 1.359375 -0.953125 1.273438 -1.390625 1.265625 -2.046875 L 1.265625 -6 L 0.171875 -5.90625 L 0 -6.59375 C 0.644531 -6.875 1.304688 -7.023438 1.984375 -7.046875 L 2.5625 -6.53125 L 2.5625 -2.15625 C 2.59375 -1.320312 2.914062 -0.90625 3.53125 -0.90625 C 4.0625 -0.90625 4.738281 -1.15625 5.5625 -1.65625 L 5.5625 -6 L 4.46875 -5.90625 L 4.296875 -6.59375 C 4.941406 -6.875 5.601562 -7.023438 6.28125 -7.046875 L 6.859375 -6.53125 L 6.859375 -1.25 C 6.859375 -1.0625 6.984375 -0.96875 7.234375 -0.96875 C 7.378906 -0.96875 7.601562 -1.007812 7.90625 -1.09375 Z M 8.125 -0.453125 "/></g></g></g><g clip-path="url(#5336787756)"><g fill="#ff00ff" fill-opacity="1"><g transform="translate(17.03032, 16.656568)"><g><path d="M 2.1875 -1.390625 C 2.894531 -1.390625 3.753906 -1.285156 4.765625 -1.078125 C 5.785156 -0.878906 6.613281 -0.65625 7.25 -0.40625 L 7.328125 0.21875 C 7.328125 1.101562 6.914062 1.847656 6.09375 2.453125 C 5.28125 3.054688 4.316406 3.359375 3.203125 3.359375 C 2.441406 3.359375 1.796875 3.191406 1.265625 2.859375 C 0.742188 2.535156 0.484375 2.085938 0.484375 1.515625 L 0.5 1.296875 L 2.234375 -0.3125 L 1.078125 -0.359375 L 0.8125 -1.046875 C 1.289062 -1.609375 1.804688 -2.085938 2.359375 -2.484375 C 1.242188 -2.910156 0.6875 -3.660156 0.6875 -4.734375 C 0.6875 -5.453125 0.976562 -6.046875 1.5625 -6.515625 C 2.144531 -6.984375 2.863281 -7.21875 3.71875 -7.21875 C 4.46875 -7.21875 5.113281 -7.03125 5.65625 -6.65625 C 6 -7.3125 6.578125 -7.722656 7.390625 -7.890625 L 7.65625 -6.375 C 7.15625 -6.375 6.695312 -6.28125 6.28125 -6.09375 C 6.582031 -5.675781 6.734375 -5.210938 6.734375 -4.703125 C 6.734375 -3.972656 6.4375 -3.378906 5.84375 -2.921875 C 5.257812 -2.472656 4.550781 -2.25 3.71875 -2.25 L 3.171875 -2.28125 C 2.742188 -1.957031 2.414062 -1.660156 2.1875 -1.390625 Z M 2.5 -6.15625 C 2.1875 -5.78125 2.03125 -5.332031 2.03125 -4.8125 C 2.03125 -4.269531 2.175781 -3.828125 2.46875 -3.484375 C 2.769531 -3.148438 3.1875 -2.984375 3.71875 -2.984375 C 4.019531 -2.984375 4.34375 -3.046875 4.6875 -3.171875 C 5.15625 -3.554688 5.390625 -4.035156 5.390625 -4.609375 C 5.390625 -5.109375 5.210938 -5.535156 4.859375 -5.890625 C 4.515625 -6.253906 4.085938 -6.4375 3.578125 -6.4375 C 3.234375 -6.4375 2.875 -6.34375 2.5 -6.15625 Z M 3.296875 2.1875 C 3.929688 2.1875 4.550781 2.050781 5.15625 1.78125 C 5.769531 1.519531 6.207031 1.144531 6.46875 0.65625 C 5.84375 0.289062 4.722656 0 3.109375 -0.21875 C 2.148438 0.425781 1.671875 0.960938 1.671875 1.390625 C 1.671875 1.628906 1.820312 1.820312 2.125 1.96875 C 2.425781 2.113281 2.816406 2.1875 3.296875 2.1875 Z M 3.296875 2.1875 "/></g></g></g></g><g clip-path="url(#a780a4d2b4)"><g fill="#00ffff" fill-opacity="1"><g transform="translate(1.032603, 16.656568)"><g><path d="M 7.46875 -6.296875 L 6.53125 -5.9375 C 5.976562 -4.144531 5.410156 -2.4375 4.828125 -0.8125 C 4.460938 0.0507812 4.015625 0.804688 3.484375 1.453125 C 2.960938 2.109375 2.300781 2.675781 1.5 3.15625 L 0.765625 1.828125 C 1.953125 1.335938 2.859375 0.75 3.484375 0.0625 C 3.171875 -0.0507812 2.910156 -0.203125 2.703125 -0.390625 L 0.65625 -6.0625 L -0.140625 -6.109375 L -0.125 -6.8125 L 2.921875 -6.8125 L 3.015625 -6.296875 L 2.171875 -5.96875 L 3.28125 -2.65625 L 3.53125 -0.96875 L 3.796875 -0.96875 C 4.347656 -2.507812 4.835938 -4.207031 5.265625 -6.0625 L 4.390625 -6.109375 L 4.40625 -6.8125 L 7.390625 -6.8125 Z M 7.46875 -6.296875 "/></g></g></g></g><g fill="#00ffff" fill-opacity="1"><g transform="translate(8.357864, 16.656568)"><g><path d="M 8.125 -0.453125 L 6.65625 0.21875 C 6.5 0.195312 6.304688 0.078125 6.078125 -0.140625 C 5.847656 -0.367188 5.691406 -0.609375 5.609375 -0.859375 C 5.117188 -0.546875 4.601562 -0.285156 4.0625 -0.078125 C 3.519531 0.117188 3.097656 0.21875 2.796875 0.21875 C 2.265625 0.101562 1.835938 -0.210938 1.515625 -0.734375 C 1.359375 -0.953125 1.273438 -1.390625 1.265625 -2.046875 L 1.265625 -6 L 0.171875 -5.90625 L 0 -6.59375 C 0.644531 -6.875 1.304688 -7.023438 1.984375 -7.046875 L 2.5625 -6.53125 L 2.5625 -2.15625 C 2.59375 -1.320312 2.914062 -0.90625 3.53125 -0.90625 C 4.0625 -0.90625 4.738281 -1.15625 5.5625 -1.65625 L 5.5625 -6 L 4.46875 -5.90625 L 4.296875 -6.59375 C 4.941406 -6.875 5.601562 -7.023438 6.28125 -7.046875 L 6.859375 -6.53125 L 6.859375 -1.25 C 6.859375 -1.0625 6.984375 -0.96875 7.234375 -0.96875 C 7.378906 -0.96875 7.601562 -1.007812 7.90625 -1.09375 Z M 8.125 -0.453125 "/></g></g></g><g clip-path="url(#c60398bf9d)"><g fill="#00ffff" fill-opacity="1"><g transform="translate(16.48408, 16.656568)"><g><path d="M 2.1875 -1.390625 C 2.894531 -1.390625 3.753906 -1.285156 4.765625 -1.078125 C 5.785156 -0.878906 6.613281 -0.65625 7.25 -0.40625 L 7.328125 0.21875 C 7.328125 1.101562 6.914062 1.847656 6.09375 2.453125 C 5.28125 3.054688 4.316406 3.359375 3.203125 3.359375 C 2.441406 3.359375 1.796875 3.191406 1.265625 2.859375 C 0.742188 2.535156 0.484375 2.085938 0.484375 1.515625 L 0.5 1.296875 L 2.234375 -0.3125 L 1.078125 -0.359375 L 0.8125 -1.046875 C 1.289062 -1.609375 1.804688 -2.085938 2.359375 -2.484375 C 1.242188 -2.910156 0.6875 -3.660156 0.6875 -4.734375 C 0.6875 -5.453125 0.976562 -6.046875 1.5625 -6.515625 C 2.144531 -6.984375 2.863281 -7.21875 3.71875 -7.21875 C 4.46875 -7.21875 5.113281 -7.03125 5.65625 -6.65625 C 6 -7.3125 6.578125 -7.722656 7.390625 -7.890625 L 7.65625 -6.375 C 7.15625 -6.375 6.695312 -6.28125 6.28125 -6.09375 C 6.582031 -5.675781 6.734375 -5.210938 6.734375 -4.703125 C 6.734375 -3.972656 6.4375 -3.378906 5.84375 -2.921875 C 5.257812 -2.472656 4.550781 -2.25 3.71875 -2.25 L 3.171875 -2.28125 C 2.742188 -1.957031 2.414062 -1.660156 2.1875 -1.390625 Z M 2.5 -6.15625 C 2.1875 -5.78125 2.03125 -5.332031 2.03125 -4.8125 C 2.03125 -4.269531 2.175781 -3.828125 2.46875 -3.484375 C 2.769531 -3.148438 3.1875 -2.984375 3.71875 -2.984375 C 4.019531 -2.984375 4.34375 -3.046875 4.6875 -3.171875 C 5.15625 -3.554688 5.390625 -4.035156 5.390625 -4.609375 C 5.390625 -5.109375 5.210938 -5.535156 4.859375 -5.890625 C 4.515625 -6.253906 4.085938 -6.4375 3.578125 -6.4375 C 3.234375 -6.4375 2.875 -6.34375 2.5 -6.15625 Z M 3.296875 2.1875 C 3.929688 2.1875 4.550781 2.050781 5.15625 1.78125 C 5.769531 1.519531 6.207031 1.144531 6.46875 0.65625 C 5.84375 0.289062 4.722656 0 3.109375 -0.21875 C 2.148438 0.425781 1.671875 0.960938 1.671875 1.390625 C 1.671875 1.628906 1.820312 1.820312 2.125 1.96875 C 2.425781 2.113281 2.816406 2.1875 3.296875 2.1875 Z M 3.296875 2.1875 "/></g></g></g></g><g fill="#000000" fill-opacity="1"><g transform="translate(1.305723, 16.656568)"><g><path d="M 7.46875 -6.296875 L 6.53125 -5.9375 C 5.976562 -4.144531 5.410156 -2.4375 4.828125 -0.8125 C 4.460938 0.0507812 4.015625 0.804688 3.484375 1.453125 C 2.960938 2.109375 2.300781 2.675781 1.5 3.15625 L 0.765625 1.828125 C 1.953125 1.335938 2.859375 0.75 3.484375 0.0625 C 3.171875 -0.0507812 2.910156 -0.203125 2.703125 -0.390625 L 0.65625 -6.0625 L -0.140625 -6.109375 L -0.125 -6.8125 L 2.921875 -6.8125 L 3.015625 -6.296875 L 2.171875 -5.96875 L 3.28125 -2.65625 L 3.53125 -0.96875 L 3.796875 -0.96875 C 4.347656 -2.507812 4.835938 -4.207031 5.265625 -6.0625 L 4.390625 -6.109375 L 4.40625 -6.8125 L 7.390625 -6.8125 Z M 7.46875 -6.296875 "/></g></g></g><g fill="#000000" fill-opacity="1"><g transform="translate(8.630985, 16.656568)"><g><path d="M 8.125 -0.453125 L 6.65625 0.21875 C 6.5 0.195312 6.304688 0.078125 6.078125 -0.140625 C 5.847656 -0.367188 5.691406 -0.609375 5.609375 -0.859375 C 5.117188 -0.546875 4.601562 -0.285156 4.0625 -0.078125 C 3.519531 0.117188 3.097656 0.21875 2.796875 0.21875 C 2.265625 0.101562 1.835938 -0.210938 1.515625 -0.734375 C 1.359375 -0.953125 1.273438 -1.390625 1.265625 -2.046875 L 1.265625 -6 L 0.171875 -5.90625 L 0 -6.59375 C 0.644531 -6.875 1.304688 -7.023438 1.984375 -7.046875 L 2.5625 -6.53125 L 2.5625 -2.15625 C 2.59375 -1.320312 2.914062 -0.90625 3.53125 -0.90625 C 4.0625 -0.90625 4.738281 -1.15625 5.5625 -1.65625 L 5.5625 -6 L 4.46875 -5.90625 L 4.296875 -6.59375 C 4.941406 -6.875 5.601562 -7.023438 6.28125 -7.046875 L 6.859375 -6.53125 L 6.859375 -1.25 C 6.859375 -1.0625 6.984375 -0.96875 7.234375 -0.96875 C 7.378906 -0.96875 7.601562 -1.007812 7.90625 -1.09375 Z M 8.125 -0.453125 "/></g></g></g><g clip-path="url(#26159d949a)"><g fill="#000000" fill-opacity="1"><g transform="translate(16.7572, 16.656568)"><g><path d="M 2.1875 -1.390625 C 2.894531 -1.390625 3.753906 -1.285156 4.765625 -1.078125 C 5.785156 -0.878906 6.613281 -0.65625 7.25 -0.40625 L 7.328125 0.21875 C 7.328125 1.101562 6.914062 1.847656 6.09375 2.453125 C 5.28125 3.054688 4.316406 3.359375 3.203125 3.359375 C 2.441406 3.359375 1.796875 3.191406 1.265625 2.859375 C 0.742188 2.535156 0.484375 2.085938 0.484375 1.515625 L 0.5 1.296875 L 2.234375 -0.3125 L 1.078125 -0.359375 L 0.8125 -1.046875 C 1.289062 -1.609375 1.804688 -2.085938 2.359375 -2.484375 C 1.242188 -2.910156 0.6875 -3.660156 0.6875 -4.734375 C 0.6875 -5.453125 0.976562 -6.046875 1.5625 -6.515625 C 2.144531 -6.984375 2.863281 -7.21875 3.71875 -7.21875 C 4.46875 -7.21875 5.113281 -7.03125 5.65625 -6.65625 C 6 -7.3125 6.578125 -7.722656 7.390625 -7.890625 L 7.65625 -6.375 C 7.15625 -6.375 6.695312 -6.28125 6.28125 -6.09375 C 6.582031 -5.675781 6.734375 -5.210938 6.734375 -4.703125 C 6.734375 -3.972656 6.4375 -3.378906 5.84375 -2.921875 C 5.257812 -2.472656 4.550781 -2.25 3.71875 -2.25 L 3.171875 -2.28125 C 2.742188 -1.957031 2.414062 -1.660156 2.1875 -1.390625 Z M 2.5 -6.15625 C 2.1875 -5.78125 2.03125 -5.332031 2.03125 -4.8125 C 2.03125 -4.269531 2.175781 -3.828125 2.46875 -3.484375 C 2.769531 -3.148438 3.1875 -2.984375 3.71875 -2.984375 C 4.019531 -2.984375 4.34375 -3.046875 4.6875 -3.171875 C 5.15625 -3.554688 5.390625 -4.035156 5.390625 -4.609375 C 5.390625 -5.109375 5.210938 -5.535156 4.859375 -5.890625 C 4.515625 -6.253906 4.085938 -6.4375 3.578125 -6.4375 C 3.234375 -6.4375 2.875 -6.34375 2.5 -6.15625 Z M 3.296875 2.1875 C 3.929688 2.1875 4.550781 2.050781 5.15625 1.78125 C 5.769531 1.519531 6.207031 1.144531 6.46875 0.65625 C 5.84375 0.289062 4.722656 0 3.109375 -0.21875 C 2.148438 0.425781 1.671875 0.960938 1.671875 1.390625 C 1.671875 1.628906 1.820312 1.820312 2.125 1.96875 C 2.425781 2.113281 2.816406 2.1875 3.296875 2.1875 Z M 3.296875 2.1875 "/></g></g></g></g></g></g></g></g></g></g></svg>