<svg xmlns="http://www.w3.org/2000/svg" xmlns:xlink="http://www.w3.org/1999/xlink" width="101" zoomAndPan="magnify" viewBox="0 0 75.75 30.000001" height="40" preserveAspectRatio="xMidYMid meet" version="1.0"><defs><g/><clipPath id="83288a38af"><path d="M 1.101562 0 L 42 0 L 42 29.03125 L 1.101562 29.03125 Z M 1.101562 0 " clip-rule="nonzero"/></clipPath><clipPath id="4d8fc1ca59"><path d="M 0.566406 8 L 16 8 L 16 20 L 0.566406 20 Z M 0.566406 8 " clip-rule="nonzero"/></clipPath><clipPath id="8cf9d58780"><rect x="0" width="41" y="0" height="30"/></clipPath><clipPath id="28f8823f7a"><path d="M 40 0 L 72 0 L 72 29.03125 L 40 29.03125 Z M 40 0 " clip-rule="nonzero"/></clipPath><clipPath id="3723e88c4c"><rect x="0" width="32" y="0" height="30"/></clipPath></defs><g clip-path="url(#83288a38af)"><g transform="matrix(1, 0, 0, 1, 1, 0.000000000000005692)"><g clip-path="url(#8cf9d58780)"><g fill="#ff00ff" fill-opacity="1"><g transform="translate(2.178851, 19.270895)"><g><path d="M 13.609375 -9.8125 L 6.59375 -9.8125 L 7.390625 -9.125 L 7.390625 -6.25 C 8.117188 -6.957031 8.882812 -7.3125 9.6875 -7.3125 C 10.457031 -7.3125 11.128906 -7 11.703125 -6.375 C 12.285156 -5.75 12.578125 -5.007812 12.578125 -4.15625 C 12.578125 -2.738281 11.6875 -1.425781 9.90625 -0.21875 L 8.78125 -1.484375 C 10.519531 -2.691406 11.390625 -3.757812 11.390625 -4.6875 C 11.390625 -5.039062 11.285156 -5.34375 11.078125 -5.59375 C 10.878906 -5.84375 10.5625 -5.96875 10.125 -5.96875 C 9.257812 -5.96875 8.347656 -5.351562 7.390625 -4.125 L 7.390625 0.46875 L 6.953125 0.609375 L 5.875 -0.09375 L 5.875 -2.515625 C 5.375 -2.085938 4.8125 -1.875 4.1875 -1.875 C 3.289062 -1.875 2.441406 -2.238281 1.640625 -2.96875 C 0.847656 -3.695312 0.453125 -4.515625 0.453125 -5.421875 C 0.453125 -6.160156 0.722656 -6.785156 1.265625 -7.296875 C 1.816406 -7.804688 2.460938 -8.0625 3.203125 -8.0625 C 3.460938 -8.0625 3.71875 -8.023438 3.96875 -7.953125 L 5.875 -7.03125 L 5.875 -9.8125 L 0 -9.8125 L -0.546875 -10.71875 L -0.390625 -11.09375 L 13.21875 -11.09375 L 13.765625 -10.171875 Z M 2.265625 -3.40625 C 2.617188 -3.195312 2.988281 -3.09375 3.375 -3.09375 C 4.34375 -3.09375 5.175781 -3.546875 5.875 -4.453125 L 5.875 -6.125 C 5.15625 -6.53125 4.515625 -6.734375 3.953125 -6.734375 C 3.328125 -6.734375 2.816406 -6.535156 2.421875 -6.140625 C 2.035156 -5.742188 1.84375 -5.269531 1.84375 -4.71875 C 1.84375 -4.25 1.984375 -3.8125 2.265625 -3.40625 Z M 2.265625 -3.40625 "/></g></g></g><g fill="#ff00ff" fill-opacity="1"><g transform="translate(15.393852, 19.270895)"><g><path d="M 5.171875 -9.8125 L 2.375 -9.8125 L 3.15625 -9.125 L 3.15625 0.46875 L 2.71875 0.609375 L 1.640625 -0.09375 L 1.640625 -9.8125 L 0 -9.8125 L -0.546875 -10.71875 L -0.390625 -11.09375 L 1.421875 -11.09375 L -0.40625 -13.65625 C -0.957031 -14.382812 -1.582031 -14.75 -2.28125 -14.75 C -2.820312 -14.75 -3.453125 -14.519531 -4.171875 -14.0625 L -5.03125 -15.46875 C -4.320312 -16.050781 -3.601562 -16.34375 -2.875 -16.34375 C -1.757812 -16.34375 -0.734375 -15.664062 0.203125 -14.3125 L 2.4375 -11.09375 L 4.796875 -11.09375 L 5.34375 -10.171875 Z M 5.171875 -9.8125 "/></g></g></g><g fill="#ff00ff" fill-opacity="1"><g transform="translate(20.187704, 19.270895)"><g><path d="M 11.203125 -9.8125 L 8.09375 -9.8125 L 8.875 -9.125 L 8.875 -6.703125 L 5.140625 -6.703125 C 3.835938 -6.703125 3.1875 -6.3125 3.1875 -5.53125 C 3.1875 -5.09375 3.410156 -4.679688 3.859375 -4.296875 L 6.984375 -5.28125 C 7.804688 -5.113281 8.488281 -4.722656 9.03125 -4.109375 C 9.570312 -3.492188 9.84375 -2.816406 9.84375 -2.078125 C 9.84375 -1.285156 9.535156 -0.625 8.921875 -0.09375 C 8.316406 0.425781 7.523438 0.6875 6.546875 0.6875 C 5.578125 0.6875 4.609375 0.363281 3.640625 -0.28125 C 2.671875 -0.9375 1.671875 -2.050781 0.640625 -3.625 L 1.3125 -4.125 C 2.6875 -1.882812 4.226562 -0.765625 5.9375 -0.765625 C 6.664062 -0.765625 7.273438 -0.957031 7.765625 -1.34375 C 8.253906 -1.738281 8.5 -2.222656 8.5 -2.796875 C 8.5 -3.160156 8.390625 -3.492188 8.171875 -3.796875 L 5.25 -2.828125 C 4.664062 -2.910156 4.113281 -3.128906 3.59375 -3.484375 C 3.070312 -3.835938 2.648438 -4.253906 2.328125 -4.734375 C 2.015625 -5.222656 1.859375 -5.695312 1.859375 -6.15625 C 1.859375 -6.726562 2.101562 -7.222656 2.59375 -7.640625 C 3.09375 -8.066406 3.828125 -8.28125 4.796875 -8.28125 L 7.453125 -8.28125 L 7.453125 -9.8125 L 0 -9.8125 L -0.546875 -10.71875 L -0.390625 -11.09375 L 10.8125 -11.09375 L 11.359375 -10.171875 Z M 11.203125 -9.8125 "/></g></g></g><g fill="#ff00ff" fill-opacity="1"><g transform="translate(30.996665, 19.270895)"><g><path d="M 7.53125 -9.8125 L 4.171875 -9.8125 L 4.953125 -9.15625 L 4.953125 -6.734375 C 4.953125 -5.960938 4.351562 -4.976562 3.15625 -3.78125 L 7.28125 -0.40625 L 7.296875 -0.09375 L 6.296875 0.859375 L 0.625 -4.9375 L 1.015625 -6.03125 L 3.296875 -6.03125 C 3.398438 -6.289062 3.453125 -6.578125 3.453125 -6.890625 L 3.453125 -9.8125 L 0 -9.8125 L -0.546875 -10.71875 L -0.390625 -11.09375 L 7.140625 -11.09375 L 7.6875 -10.171875 Z M 7.53125 -9.8125 "/></g></g></g><g clip-path="url(#4d8fc1ca59)"><g fill="#00ffff" fill-opacity="1"><g transform="translate(1.494859, 19.270895)"><g><path d="M 13.609375 -9.8125 L 6.59375 -9.8125 L 7.390625 -9.125 L 7.390625 -6.25 C 8.117188 -6.957031 8.882812 -7.3125 9.6875 -7.3125 C 10.457031 -7.3125 11.128906 -7 11.703125 -6.375 C 12.285156 -5.75 12.578125 -5.007812 12.578125 -4.15625 C 12.578125 -2.738281 11.6875 -1.425781 9.90625 -0.21875 L 8.78125 -1.484375 C 10.519531 -2.691406 11.390625 -3.757812 11.390625 -4.6875 C 11.390625 -5.039062 11.285156 -5.34375 11.078125 -5.59375 C 10.878906 -5.84375 10.5625 -5.96875 10.125 -5.96875 C 9.257812 -5.96875 8.347656 -5.351562 7.390625 -4.125 L 7.390625 0.46875 L 6.953125 0.609375 L 5.875 -0.09375 L 5.875 -2.515625 C 5.375 -2.085938 4.8125 -1.875 4.1875 -1.875 C 3.289062 -1.875 2.441406 -2.238281 1.640625 -2.96875 C 0.847656 -3.695312 0.453125 -4.515625 0.453125 -5.421875 C 0.453125 -6.160156 0.722656 -6.785156 1.265625 -7.296875 C 1.816406 -7.804688 2.460938 -8.0625 3.203125 -8.0625 C 3.460938 -8.0625 3.71875 -8.023438 3.96875 -7.953125 L 5.875 -7.03125 L 5.875 -9.8125 L 0 -9.8125 L -0.546875 -10.71875 L -0.390625 -11.09375 L 13.21875 -11.09375 L 13.765625 -10.171875 Z M 2.265625 -3.40625 C 2.617188 -3.195312 2.988281 -3.09375 3.375 -3.09375 C 4.34375 -3.09375 5.175781 -3.546875 5.875 -4.453125 L 5.875 -6.125 C 5.15625 -6.53125 4.515625 -6.734375 3.953125 -6.734375 C 3.328125 -6.734375 2.816406 -6.535156 2.421875 -6.140625 C 2.035156 -5.742188 1.84375 -5.269531 1.84375 -4.71875 C 1.84375 -4.25 1.984375 -3.8125 2.265625 -3.40625 Z M 2.265625 -3.40625 "/></g></g></g></g><g fill="#00ffff" fill-opacity="1"><g transform="translate(14.70986, 19.270895)"><g><path d="M 5.171875 -9.8125 L 2.375 -9.8125 L 3.15625 -9.125 L 3.15625 0.46875 L 2.71875 0.609375 L 1.640625 -0.09375 L 1.640625 -9.8125 L 0 -9.8125 L -0.546875 -10.71875 L -0.390625 -11.09375 L 1.421875 -11.09375 L -0.40625 -13.65625 C -0.957031 -14.382812 -1.582031 -14.75 -2.28125 -14.75 C -2.820312 -14.75 -3.453125 -14.519531 -4.171875 -14.0625 L -5.03125 -15.46875 C -4.320312 -16.050781 -3.601562 -16.34375 -2.875 -16.34375 C -1.757812 -16.34375 -0.734375 -15.664062 0.203125 -14.3125 L 2.4375 -11.09375 L 4.796875 -11.09375 L 5.34375 -10.171875 Z M 5.171875 -9.8125 "/></g></g></g><g fill="#00ffff" fill-opacity="1"><g transform="translate(19.503713, 19.270895)"><g><path d="M 11.203125 -9.8125 L 8.09375 -9.8125 L 8.875 -9.125 L 8.875 -6.703125 L 5.140625 -6.703125 C 3.835938 -6.703125 3.1875 -6.3125 3.1875 -5.53125 C 3.1875 -5.09375 3.410156 -4.679688 3.859375 -4.296875 L 6.984375 -5.28125 C 7.804688 -5.113281 8.488281 -4.722656 9.03125 -4.109375 C 9.570312 -3.492188 9.84375 -2.816406 9.84375 -2.078125 C 9.84375 -1.285156 9.535156 -0.625 8.921875 -0.09375 C 8.316406 0.425781 7.523438 0.6875 6.546875 0.6875 C 5.578125 0.6875 4.609375 0.363281 3.640625 -0.28125 C 2.671875 -0.9375 1.671875 -2.050781 0.640625 -3.625 L 1.3125 -4.125 C 2.6875 -1.882812 4.226562 -0.765625 5.9375 -0.765625 C 6.664062 -0.765625 7.273438 -0.957031 7.765625 -1.34375 C 8.253906 -1.738281 8.5 -2.222656 8.5 -2.796875 C 8.5 -3.160156 8.390625 -3.492188 8.171875 -3.796875 L 5.25 -2.828125 C 4.664062 -2.910156 4.113281 -3.128906 3.59375 -3.484375 C 3.070312 -3.835938 2.648438 -4.253906 2.328125 -4.734375 C 2.015625 -5.222656 1.859375 -5.695312 1.859375 -6.15625 C 1.859375 -6.726562 2.101562 -7.222656 2.59375 -7.640625 C 3.09375 -8.066406 3.828125 -8.28125 4.796875 -8.28125 L 7.453125 -8.28125 L 7.453125 -9.8125 L 0 -9.8125 L -0.546875 -10.71875 L -0.390625 -11.09375 L 10.8125 -11.09375 L 11.359375 -10.171875 Z M 11.203125 -9.8125 "/></g></g></g><g fill="#00ffff" fill-opacity="1"><g transform="translate(30.312674, 19.270895)"><g><path d="M 7.53125 -9.8125 L 4.171875 -9.8125 L 4.953125 -9.15625 L 4.953125 -6.734375 C 4.953125 -5.960938 4.351562 -4.976562 3.15625 -3.78125 L 7.28125 -0.40625 L 7.296875 -0.09375 L 6.296875 0.859375 L 0.625 -4.9375 L 1.015625 -6.03125 L 3.296875 -6.03125 C 3.398438 -6.289062 3.453125 -6.578125 3.453125 -6.890625 L 3.453125 -9.8125 L 0 -9.8125 L -0.546875 -10.71875 L -0.390625 -11.09375 L 7.140625 -11.09375 L 7.6875 -10.171875 Z M 7.53125 -9.8125 "/></g></g></g><g fill="#fbfbfb" fill-opacity="1"><g transform="translate(1.836855, 19.270895)"><g><path d="M 13.609375 -9.8125 L 6.59375 -9.8125 L 7.390625 -9.125 L 7.390625 -6.25 C 8.117188 -6.957031 8.882812 -7.3125 9.6875 -7.3125 C 10.457031 -7.3125 11.128906 -7 11.703125 -6.375 C 12.285156 -5.75 12.578125 -5.007812 12.578125 -4.15625 C 12.578125 -2.738281 11.6875 -1.425781 9.90625 -0.21875 L 8.78125 -1.484375 C 10.519531 -2.691406 11.390625 -3.757812 11.390625 -4.6875 C 11.390625 -5.039062 11.285156 -5.34375 11.078125 -5.59375 C 10.878906 -5.84375 10.5625 -5.96875 10.125 -5.96875 C 9.257812 -5.96875 8.347656 -5.351562 7.390625 -4.125 L 7.390625 0.46875 L 6.953125 0.609375 L 5.875 -0.09375 L 5.875 -2.515625 C 5.375 -2.085938 4.8125 -1.875 4.1875 -1.875 C 3.289062 -1.875 2.441406 -2.238281 1.640625 -2.96875 C 0.847656 -3.695312 0.453125 -4.515625 0.453125 -5.421875 C 0.453125 -6.160156 0.722656 -6.785156 1.265625 -7.296875 C 1.816406 -7.804688 2.460938 -8.0625 3.203125 -8.0625 C 3.460938 -8.0625 3.71875 -8.023438 3.96875 -7.953125 L 5.875 -7.03125 L 5.875 -9.8125 L 0 -9.8125 L -0.546875 -10.71875 L -0.390625 -11.09375 L 13.21875 -11.09375 L 13.765625 -10.171875 Z M 2.265625 -3.40625 C 2.617188 -3.195312 2.988281 -3.09375 3.375 -3.09375 C 4.34375 -3.09375 5.175781 -3.546875 5.875 -4.453125 L 5.875 -6.125 C 5.15625 -6.53125 4.515625 -6.734375 3.953125 -6.734375 C 3.328125 -6.734375 2.816406 -6.535156 2.421875 -6.140625 C 2.035156 -5.742188 1.84375 -5.269531 1.84375 -4.71875 C 1.84375 -4.25 1.984375 -3.8125 2.265625 -3.40625 Z M 2.265625 -3.40625 "/></g></g></g><g fill="#fbfbfb" fill-opacity="1"><g transform="translate(15.051856, 19.270895)"><g><path d="M 5.171875 -9.8125 L 2.375 -9.8125 L 3.15625 -9.125 L 3.15625 0.46875 L 2.71875 0.609375 L 1.640625 -0.09375 L 1.640625 -9.8125 L 0 -9.8125 L -0.546875 -10.71875 L -0.390625 -11.09375 L 1.421875 -11.09375 L -0.40625 -13.65625 C -0.957031 -14.382812 -1.582031 -14.75 -2.28125 -14.75 C -2.820312 -14.75 -3.453125 -14.519531 -4.171875 -14.0625 L -5.03125 -15.46875 C -4.320312 -16.050781 -3.601562 -16.34375 -2.875 -16.34375 C -1.757812 -16.34375 -0.734375 -15.664062 0.203125 -14.3125 L 2.4375 -11.09375 L 4.796875 -11.09375 L 5.34375 -10.171875 Z M 5.171875 -9.8125 "/></g></g></g><g fill="#fbfbfb" fill-opacity="1"><g transform="translate(19.845709, 19.270895)"><g><path d="M 11.203125 -9.8125 L 8.09375 -9.8125 L 8.875 -9.125 L 8.875 -6.703125 L 5.140625 -6.703125 C 3.835938 -6.703125 3.1875 -6.3125 3.1875 -5.53125 C 3.1875 -5.09375 3.410156 -4.679688 3.859375 -4.296875 L 6.984375 -5.28125 C 7.804688 -5.113281 8.488281 -4.722656 9.03125 -4.109375 C 9.570312 -3.492188 9.84375 -2.816406 9.84375 -2.078125 C 9.84375 -1.285156 9.535156 -0.625 8.921875 -0.09375 C 8.316406 0.425781 7.523438 0.6875 6.546875 0.6875 C 5.578125 0.6875 4.609375 0.363281 3.640625 -0.28125 C 2.671875 -0.9375 1.671875 -2.050781 0.640625 -3.625 L 1.3125 -4.125 C 2.6875 -1.882812 4.226562 -0.765625 5.9375 -0.765625 C 6.664062 -0.765625 7.273438 -0.957031 7.765625 -1.34375 C 8.253906 -1.738281 8.5 -2.222656 8.5 -2.796875 C 8.5 -3.160156 8.390625 -3.492188 8.171875 -3.796875 L 5.25 -2.828125 C 4.664062 -2.910156 4.113281 -3.128906 3.59375 -3.484375 C 3.070312 -3.835938 2.648438 -4.253906 2.328125 -4.734375 C 2.015625 -5.222656 1.859375 -5.695312 1.859375 -6.15625 C 1.859375 -6.726562 2.101562 -7.222656 2.59375 -7.640625 C 3.09375 -8.066406 3.828125 -8.28125 4.796875 -8.28125 L 7.453125 -8.28125 L 7.453125 -9.8125 L 0 -9.8125 L -0.546875 -10.71875 L -0.390625 -11.09375 L 10.8125 -11.09375 L 11.359375 -10.171875 Z M 11.203125 -9.8125 "/></g></g></g><g fill="#fbfbfb" fill-opacity="1"><g transform="translate(30.654669, 19.270895)"><g><path d="M 7.53125 -9.8125 L 4.171875 -9.8125 L 4.953125 -9.15625 L 4.953125 -6.734375 C 4.953125 -5.960938 4.351562 -4.976562 3.15625 -3.78125 L 7.28125 -0.40625 L 7.296875 -0.09375 L 6.296875 0.859375 L 0.625 -4.9375 L 1.015625 -6.03125 L 3.296875 -6.03125 C 3.398438 -6.289062 3.453125 -6.578125 3.453125 -6.890625 L 3.453125 -9.8125 L 0 -9.8125 L -0.546875 -10.71875 L -0.390625 -11.09375 L 7.140625 -11.09375 L 7.6875 -10.171875 Z M 7.53125 -9.8125 "/></g></g></g></g></g></g><g clip-path="url(#28f8823f7a)"><g transform="matrix(1, 0, 0, 1, 40, 0.000000000000005692)"><g clip-path="url(#3723e88c4c)"><g fill="#ff00ff" fill-opacity="1"><g transform="translate(1.974956, 17.234961)"><g><path d="M 9.359375 -7.890625 L 8.1875 -7.453125 C 7.5 -5.191406 6.789062 -3.046875 6.0625 -1.015625 C 5.59375 0.0664062 5.03125 1.015625 4.375 1.828125 C 3.71875 2.640625 2.882812 3.347656 1.875 3.953125 L 0.96875 2.296875 C 2.445312 1.679688 3.578125 0.941406 4.359375 0.078125 C 3.972656 -0.0546875 3.648438 -0.25 3.390625 -0.5 L 0.828125 -7.59375 L -0.1875 -7.640625 L -0.171875 -8.546875 L 3.671875 -8.546875 L 3.78125 -7.890625 L 2.71875 -7.484375 L 4.109375 -3.328125 L 4.421875 -1.21875 L 4.765625 -1.21875 C 5.453125 -3.144531 6.066406 -5.269531 6.609375 -7.59375 L 5.515625 -7.640625 L 5.53125 -8.546875 L 9.25 -8.546875 Z M 9.359375 -7.890625 "/></g></g></g><g fill="#ff00ff" fill-opacity="1"><g transform="translate(11.150792, 17.234961)"><g><path d="M 10.1875 -0.5625 L 8.34375 0.28125 C 8.144531 0.25 7.898438 0.09375 7.609375 -0.1875 C 7.328125 -0.46875 7.132812 -0.765625 7.03125 -1.078125 C 6.414062 -0.691406 5.765625 -0.367188 5.078125 -0.109375 C 4.398438 0.148438 3.875 0.28125 3.5 0.28125 C 2.832031 0.132812 2.296875 -0.257812 1.890625 -0.90625 C 1.703125 -1.1875 1.601562 -1.742188 1.59375 -2.578125 L 1.59375 -7.515625 L 0.21875 -7.40625 L 0 -8.265625 C 0.8125 -8.617188 1.640625 -8.804688 2.484375 -8.828125 L 3.21875 -8.1875 L 3.21875 -2.703125 C 3.25 -1.648438 3.648438 -1.125 4.421875 -1.125 C 5.085938 -1.125 5.9375 -1.441406 6.96875 -2.078125 L 6.96875 -7.515625 L 5.609375 -7.40625 L 5.390625 -8.265625 C 6.203125 -8.617188 7.023438 -8.804688 7.859375 -8.828125 L 8.59375 -8.1875 L 8.59375 -1.5625 C 8.59375 -1.320312 8.75 -1.203125 9.0625 -1.203125 C 9.25 -1.203125 9.53125 -1.257812 9.90625 -1.375 Z M 10.1875 -0.5625 "/></g></g></g><g fill="#ff00ff" fill-opacity="1"><g transform="translate(21.329927, 17.234961)"><g><path d="M 2.734375 -1.75 C 3.617188 -1.738281 4.695312 -1.609375 5.96875 -1.359375 C 7.25 -1.109375 8.289062 -0.828125 9.09375 -0.515625 L 9.1875 0.28125 C 9.1875 1.382812 8.671875 2.316406 7.640625 3.078125 C 6.617188 3.835938 5.410156 4.21875 4.015625 4.21875 C 3.066406 4.21875 2.257812 4.007812 1.59375 3.59375 C 0.9375 3.175781 0.609375 2.609375 0.609375 1.890625 L 0.625 1.625 L 2.796875 -0.390625 L 1.34375 -0.453125 L 1.015625 -1.3125 C 1.617188 -2.019531 2.265625 -2.625 2.953125 -3.125 C 1.554688 -3.65625 0.859375 -4.59375 0.859375 -5.9375 C 0.859375 -6.832031 1.222656 -7.570312 1.953125 -8.15625 C 2.679688 -8.75 3.582031 -9.046875 4.65625 -9.046875 C 5.601562 -9.046875 6.410156 -8.8125 7.078125 -8.34375 C 7.515625 -9.164062 8.238281 -9.679688 9.25 -9.890625 L 9.59375 -8 C 8.96875 -8 8.390625 -7.875 7.859375 -7.625 C 8.242188 -7.113281 8.4375 -6.535156 8.4375 -5.890625 C 8.4375 -4.984375 8.066406 -4.242188 7.328125 -3.671875 C 6.585938 -3.097656 5.695312 -2.8125 4.65625 -2.8125 L 3.984375 -2.859375 C 3.441406 -2.453125 3.023438 -2.082031 2.734375 -1.75 Z M 3.140625 -7.71875 C 2.734375 -7.25 2.53125 -6.691406 2.53125 -6.046875 C 2.53125 -5.359375 2.71875 -4.800781 3.09375 -4.375 C 3.476562 -3.945312 4 -3.734375 4.65625 -3.734375 C 5.03125 -3.734375 5.4375 -3.816406 5.875 -3.984375 C 6.457031 -4.453125 6.75 -5.046875 6.75 -5.765625 C 6.75 -6.398438 6.53125 -6.941406 6.09375 -7.390625 C 5.65625 -7.835938 5.117188 -8.0625 4.484375 -8.0625 C 4.046875 -8.0625 3.597656 -7.945312 3.140625 -7.71875 Z M 4.125 2.734375 C 4.925781 2.734375 5.707031 2.566406 6.46875 2.234375 C 7.226562 1.898438 7.773438 1.429688 8.109375 0.828125 C 7.328125 0.359375 5.921875 -0.0078125 3.890625 -0.28125 C 2.691406 0.539062 2.09375 1.210938 2.09375 1.734375 C 2.09375 2.035156 2.28125 2.273438 2.65625 2.453125 C 3.039062 2.640625 3.53125 2.734375 4.125 2.734375 Z M 4.125 2.734375 "/></g></g></g><g fill="#00ffff" fill-opacity="1"><g transform="translate(1.290728, 17.234961)"><g><path d="M 9.359375 -7.890625 L 8.1875 -7.453125 C 7.5 -5.191406 6.789062 -3.046875 6.0625 -1.015625 C 5.59375 0.0664062 5.03125 1.015625 4.375 1.828125 C 3.71875 2.640625 2.882812 3.347656 1.875 3.953125 L 0.96875 2.296875 C 2.445312 1.679688 3.578125 0.941406 4.359375 0.078125 C 3.972656 -0.0546875 3.648438 -0.25 3.390625 -0.5 L 0.828125 -7.59375 L -0.1875 -7.640625 L -0.171875 -8.546875 L 3.671875 -8.546875 L 3.78125 -7.890625 L 2.71875 -7.484375 L 4.109375 -3.328125 L 4.421875 -1.21875 L 4.765625 -1.21875 C 5.453125 -3.144531 6.066406 -5.269531 6.609375 -7.59375 L 5.515625 -7.640625 L 5.53125 -8.546875 L 9.25 -8.546875 Z M 9.359375 -7.890625 "/></g></g></g><g fill="#00ffff" fill-opacity="1"><g transform="translate(10.466564, 17.234961)"><g><path d="M 10.1875 -0.5625 L 8.34375 0.28125 C 8.144531 0.25 7.898438 0.09375 7.609375 -0.1875 C 7.328125 -0.46875 7.132812 -0.765625 7.03125 -1.078125 C 6.414062 -0.691406 5.765625 -0.367188 5.078125 -0.109375 C 4.398438 0.148438 3.875 0.28125 3.5 0.28125 C 2.832031 0.132812 2.296875 -0.257812 1.890625 -0.90625 C 1.703125 -1.1875 1.601562 -1.742188 1.59375 -2.578125 L 1.59375 -7.515625 L 0.21875 -7.40625 L 0 -8.265625 C 0.8125 -8.617188 1.640625 -8.804688 2.484375 -8.828125 L 3.21875 -8.1875 L 3.21875 -2.703125 C 3.25 -1.648438 3.648438 -1.125 4.421875 -1.125 C 5.085938 -1.125 5.9375 -1.441406 6.96875 -2.078125 L 6.96875 -7.515625 L 5.609375 -7.40625 L 5.390625 -8.265625 C 6.203125 -8.617188 7.023438 -8.804688 7.859375 -8.828125 L 8.59375 -8.1875 L 8.59375 -1.5625 C 8.59375 -1.320312 8.75 -1.203125 9.0625 -1.203125 C 9.25 -1.203125 9.53125 -1.257812 9.90625 -1.375 Z M 10.1875 -0.5625 "/></g></g></g><g fill="#00ffff" fill-opacity="1"><g transform="translate(20.645698, 17.234961)"><g><path d="M 2.734375 -1.75 C 3.617188 -1.738281 4.695312 -1.609375 5.96875 -1.359375 C 7.25 -1.109375 8.289062 -0.828125 9.09375 -0.515625 L 9.1875 0.28125 C 9.1875 1.382812 8.671875 2.316406 7.640625 3.078125 C 6.617188 3.835938 5.410156 4.21875 4.015625 4.21875 C 3.066406 4.21875 2.257812 4.007812 1.59375 3.59375 C 0.9375 3.175781 0.609375 2.609375 0.609375 1.890625 L 0.625 1.625 L 2.796875 -0.390625 L 1.34375 -0.453125 L 1.015625 -1.3125 C 1.617188 -2.019531 2.265625 -2.625 2.953125 -3.125 C 1.554688 -3.65625 0.859375 -4.59375 0.859375 -5.9375 C 0.859375 -6.832031 1.222656 -7.570312 1.953125 -8.15625 C 2.679688 -8.75 3.582031 -9.046875 4.65625 -9.046875 C 5.601562 -9.046875 6.410156 -8.8125 7.078125 -8.34375 C 7.515625 -9.164062 8.238281 -9.679688 9.25 -9.890625 L 9.59375 -8 C 8.96875 -8 8.390625 -7.875 7.859375 -7.625 C 8.242188 -7.113281 8.4375 -6.535156 8.4375 -5.890625 C 8.4375 -4.984375 8.066406 -4.242188 7.328125 -3.671875 C 6.585938 -3.097656 5.695312 -2.8125 4.65625 -2.8125 L 3.984375 -2.859375 C 3.441406 -2.453125 3.023438 -2.082031 2.734375 -1.75 Z M 3.140625 -7.71875 C 2.734375 -7.25 2.53125 -6.691406 2.53125 -6.046875 C 2.53125 -5.359375 2.71875 -4.800781 3.09375 -4.375 C 3.476562 -3.945312 4 -3.734375 4.65625 -3.734375 C 5.03125 -3.734375 5.4375 -3.816406 5.875 -3.984375 C 6.457031 -4.453125 6.75 -5.046875 6.75 -5.765625 C 6.75 -6.398438 6.53125 -6.941406 6.09375 -7.390625 C 5.65625 -7.835938 5.117188 -8.0625 4.484375 -8.0625 C 4.046875 -8.0625 3.597656 -7.945312 3.140625 -7.71875 Z M 4.125 2.734375 C 4.925781 2.734375 5.707031 2.566406 6.46875 2.234375 C 7.226562 1.898438 7.773438 1.429688 8.109375 0.828125 C 7.328125 0.359375 5.921875 -0.0078125 3.890625 -0.28125 C 2.691406 0.539062 2.09375 1.210938 2.09375 1.734375 C 2.09375 2.035156 2.28125 2.273438 2.65625 2.453125 C 3.039062 2.640625 3.53125 2.734375 4.125 2.734375 Z M 4.125 2.734375 "/></g></g></g><g fill="#000000" fill-opacity="1"><g transform="translate(1.632842, 17.234961)"><g><path d="M 9.359375 -7.890625 L 8.1875 -7.453125 C 7.5 -5.191406 6.789062 -3.046875 6.0625 -1.015625 C 5.59375 0.0664062 5.03125 1.015625 4.375 1.828125 C 3.71875 2.640625 2.882812 3.347656 1.875 3.953125 L 0.96875 2.296875 C 2.445312 1.679688 3.578125 0.941406 4.359375 0.078125 C 3.972656 -0.0546875 3.648438 -0.25 3.390625 -0.5 L 0.828125 -7.59375 L -0.1875 -7.640625 L -0.171875 -8.546875 L 3.671875 -8.546875 L 3.78125 -7.890625 L 2.71875 -7.484375 L 4.109375 -3.328125 L 4.421875 -1.21875 L 4.765625 -1.21875 C 5.453125 -3.144531 6.066406 -5.269531 6.609375 -7.59375 L 5.515625 -7.640625 L 5.53125 -8.546875 L 9.25 -8.546875 Z M 9.359375 -7.890625 "/></g></g></g><g fill="#000000" fill-opacity="1"><g transform="translate(10.808678, 17.234961)"><g><path d="M 10.1875 -0.5625 L 8.34375 0.28125 C 8.144531 0.25 7.898438 0.09375 7.609375 -0.1875 C 7.328125 -0.46875 7.132812 -0.765625 7.03125 -1.078125 C 6.414062 -0.691406 5.765625 -0.367188 5.078125 -0.109375 C 4.398438 0.148438 3.875 0.28125 3.5 0.28125 C 2.832031 0.132812 2.296875 -0.257812 1.890625 -0.90625 C 1.703125 -1.1875 1.601562 -1.742188 1.59375 -2.578125 L 1.59375 -7.515625 L 0.21875 -7.40625 L 0 -8.265625 C 0.8125 -8.617188 1.640625 -8.804688 2.484375 -8.828125 L 3.21875 -8.1875 L 3.21875 -2.703125 C 3.25 -1.648438 3.648438 -1.125 4.421875 -1.125 C 5.085938 -1.125 5.9375 -1.441406 6.96875 -2.078125 L 6.96875 -7.515625 L 5.609375 -7.40625 L 5.390625 -8.265625 C 6.203125 -8.617188 7.023438 -8.804688 7.859375 -8.828125 L 8.59375 -8.1875 L 8.59375 -1.5625 C 8.59375 -1.320312 8.75 -1.203125 9.0625 -1.203125 C 9.25 -1.203125 9.53125 -1.257812 9.90625 -1.375 Z M 10.1875 -0.5625 "/></g></g></g><g fill="#000000" fill-opacity="1"><g transform="translate(20.987813, 17.234961)"><g><path d="M 2.734375 -1.75 C 3.617188 -1.738281 4.695312 -1.609375 5.96875 -1.359375 C 7.25 -1.109375 8.289062 -0.828125 9.09375 -0.515625 L 9.1875 0.28125 C 9.1875 1.382812 8.671875 2.316406 7.640625 3.078125 C 6.617188 3.835938 5.410156 4.21875 4.015625 4.21875 C 3.066406 4.21875 2.257812 4.007812 1.59375 3.59375 C 0.9375 3.175781 0.609375 2.609375 0.609375 1.890625 L 0.625 1.625 L 2.796875 -0.390625 L 1.34375 -0.453125 L 1.015625 -1.3125 C 1.617188 -2.019531 2.265625 -2.625 2.953125 -3.125 C 1.554688 -3.65625 0.859375 -4.59375 0.859375 -5.9375 C 0.859375 -6.832031 1.222656 -7.570312 1.953125 -8.15625 C 2.679688 -8.75 3.582031 -9.046875 4.65625 -9.046875 C 5.601562 -9.046875 6.410156 -8.8125 7.078125 -8.34375 C 7.515625 -9.164062 8.238281 -9.679688 9.25 -9.890625 L 9.59375 -8 C 8.96875 -8 8.390625 -7.875 7.859375 -7.625 C 8.242188 -7.113281 8.4375 -6.535156 8.4375 -5.890625 C 8.4375 -4.984375 8.066406 -4.242188 7.328125 -3.671875 C 6.585938 -3.097656 5.695312 -2.8125 4.65625 -2.8125 L 3.984375 -2.859375 C 3.441406 -2.453125 3.023438 -2.082031 2.734375 -1.75 Z M 3.140625 -7.71875 C 2.734375 -7.25 2.53125 -6.691406 2.53125 -6.046875 C 2.53125 -5.359375 2.71875 -4.800781 3.09375 -4.375 C 3.476562 -3.945312 4 -3.734375 4.65625 -3.734375 C 5.03125 -3.734375 5.4375 -3.816406 5.875 -3.984375 C 6.457031 -4.453125 6.75 -5.046875 6.75 -5.765625 C 6.75 -6.398438 6.53125 -6.941406 6.09375 -7.390625 C 5.65625 -7.835938 5.117188 -8.0625 4.484375 -8.0625 C 4.046875 -8.0625 3.597656 -7.945312 3.140625 -7.71875 Z M 4.125 2.734375 C 4.925781 2.734375 5.707031 2.566406 6.46875 2.234375 C 7.226562 1.898438 7.773438 1.429688 8.109375 0.828125 C 7.328125 0.359375 5.921875 -0.0078125 3.890625 -0.28125 C 2.691406 0.539062 2.09375 1.210938 2.09375 1.734375 C 2.09375 2.035156 2.28125 2.273438 2.65625 2.453125 C 3.039062 2.640625 3.53125 2.734375 4.125 2.734375 Z M 4.125 2.734375 "/></g></g></g></g></g></g></svg>